<svg xmlns="http://www.w3.org/2000/svg" viewBox="0 0 480.011 480.011"><path d="M240.006 76.006l-64 392h128l-64-392z" fill="#e9cd4b"/><g fill="#65cecc"><circle cx="88.006" cy="316.006" r="80"/><circle cx="392.006" cy="316.006" r="80"/></g><circle cx="240.006" cy="60.006" r="16" fill="#de2f55"/><g fill="#00ba54"><circle cx="88.006" cy="300.006" r="32"/><path d="M94.855 332.006H81.156c-18.308 0-33.15 14.842-33.15 33.15v20.06a79.536 79.536 0 0 0 80 0v-20.06c0-18.308-14.842-33.15-33.151-33.15.001 0 0 0 0 0z"/></g><g fill="#de2f55"><circle cx="392.006" cy="300.006" r="32"/><path d="M398.855 332.006h-13.699c-18.308 0-33.15 14.842-33.15 33.15v20.06a79.536 79.536 0 0 0 80 0v-20.06c0-18.308-14.842-33.15-33.151-33.15.001 0 0 0 0 0z"/></g><path d="M249.119 82.185c12.262-5.033 18.122-19.054 13.088-31.316s-19.054-18.122-31.316-13.088c-12.262 5.033-18.122 19.054-13.088 31.316a24 24 0 0 0 13.088 13.088L168.11 466.717a8.003 8.003 0 0 0 7.895 9.289h128a8.003 8.003 0 0 0 7.895-9.289L249.119 82.185zm28.715 275.16l-62.379-34.022 51.246-34.165 11.133 68.187zM240.006 52.006a8 8 0 1 1-8 8 8.01 8.01 0 0 1 8-8zm0 73.648l20.887 127.926-35.91-35.91 15.023-92.016zm-18.2 111.466l37.641 37.644-49.135 32.756 11.494-70.4zm-16.174 99.068l63.358 34.56-73.624 28.316 10.266-62.876zm-20.216 123.818l6.963-42.647 89.626-34.471 12.591 77.119h-109.18z"/><g fill="#65cecc"><path d="M272.006 100.006v-16c13.255.018 24.015-10.712 24.033-23.967s-10.712-24.015-23.967-24.033v-16c22.091.018 39.985 17.942 39.967 40.033s-17.942 39.985-40.033 39.967zM208.006 100.006c-22.091 0-40-17.909-40-40s17.909-40 40-40v16c-13.255 0-24 10.745-24 24s10.745 24 24 24v16z"/><path d="M312.006 116.006v-16c22.091 0 40-17.909 40-40s-17.909-40-40-40v-16c30.928 0 56 25.072 56 56s-25.072 56-56 56zM168.006 116.006c-30.928 0-56-25.072-56-56s25.072-56 56-56v16c-22.091 0-40 17.909-40 40s17.909 40 40 40v16z"/></g><path d="M80.006 188.006h16v16h-16v-16zM80.006 156.006h16v16h-16v-16zM80.006 124.006h16v16h-16v-16zM80.006 92.006h16v16h-16v-16zM80.006 60.006h16v16h-16v-16zM96.006 228.411v-8.405h-16v8.405c-48.4 4.418-84.054 47.236-79.636 95.636s47.236 84.054 95.636 79.636 84.054-47.236 79.636-95.636c-3.86-42.28-37.356-75.776-79.636-79.636zm24 151.997a71.183 71.183 0 0 1-64 0v-15.253c.016-13.883 11.266-25.133 25.148-25.148h13.703c13.883.016 25.133 11.266 25.148 25.148v15.253zm-56-80.402c0-13.255 10.745-24 24-24s24 10.745 24 24-10.745 24-24 24c-13.249-.015-23.986-10.751-24-24zm72 69.512v-4.363a41.012 41.012 0 0 0-21.127-35.725c16.364-14.842 17.598-40.138 2.756-56.502s-40.138-17.598-56.502-2.756c-16.364 14.842-17.598 40.138-2.756 56.502a39.808 39.808 0 0 0 2.756 2.756 41.013 41.013 0 0 0-21.127 35.724v4.364c-29.639-26.51-32.175-72.027-5.666-101.666s72.027-32.175 101.666-5.666 32.175 72.027 5.666 101.666a72.293 72.293 0 0 1-5.666 5.666zM384.006 188.006h16v16h-16v-16zM400.006 228.411v-8.405h-16v8.405c-48.4 4.418-84.054 47.236-79.636 95.636s47.236 84.054 95.636 79.636 84.054-47.236 79.636-95.636c-3.86-42.28-37.356-75.776-79.636-79.636zm-40 151.997v-15.253c.016-13.883 11.266-25.133 25.148-25.148h13.703c13.883.016 25.133 11.266 25.148 25.148v15.253a71.187 71.187 0 0 1-63.999 0zm32-56.402c-13.255 0-24-10.745-24-24s10.745-24 24-24 24 10.745 24 24c-.015 13.249-10.751 23.985-24 24zm48 45.512v-4.363a41.012 41.012 0 0 0-21.127-35.725c16.364-14.842 17.598-40.138 2.756-56.502-14.842-16.364-40.138-17.598-56.502-2.756-16.364 14.842-17.598 40.138-2.756 56.502a39.808 39.808 0 0 0 2.756 2.756 41.013 41.013 0 0 0-21.127 35.724v4.364c-29.639-26.51-32.175-72.027-5.666-101.666 26.51-29.639 72.027-32.175 101.666-5.666 29.639 26.51 32.175 72.027 5.666 101.666a72.293 72.293 0 0 1-5.666 5.666zM384.006 156.006h16v16h-16v-16zM384.006 124.006h16v16h-16v-16zM384.006 92.006h16v16h-16v-16zM384.006 60.006h16v16h-16v-16z"/></svg>