<svg data-name="kentico-logo" xmlns="http://www.w3.org/2000/svg" width="163" height="74"><title>kentico logo</title><path fill="#f05a22" d="M0 0h163v74H0z"/><path d="M37 32.2c2.6 0 4.7 2.1 4.7 4.7s-2.1 4.7-4.7 4.7-4.7-2.1-4.7-4.7c0-2.5 2.1-4.7 4.7-4.7M31.8 46.9l-8 8S18 51.4 21.4 48l5.7-5.7c2.9-2.9 7.6 1.7 4.7 4.6M42.2 27.1l8-8s5.8 3.5 2.4 6.9c-1.8 1.8-4.1 4-5.7 5.7-2.9 2.8-7.6-1.7-4.7-4.6M27.1 31.8l-8-8s3.5-5.8 6.9-2.4l5.7 5.7c2.8 2.9-1.7 7.5-4.6 4.7M46.9 42.2l8 8S51.4 56 48 52.6l-5.7-5.7c-2.9-2.9 1.7-7.6 4.6-4.7M47.7 33.7H59s1.6 6.5-3.2 6.5h-8c-4.1.1-4.2-6.5-.1-6.5M26.3 40.3H15.1s-1.6-6.5 3.2-6.5h8c4-.1 4.1 6.5 0 6.5M40.3 47.7V59s-6.5 1.6-6.5-3.2v-8c-.1-4.1 6.5-4.2 6.5-.1M33.7 26.3V15s6.5-1.6 6.5 3.2v8c.1 4.1-6.5 4.2-6.5.1M70.7 32.6v4.2c1.2-1.8 2.4-3.6 3.9-5.2.7-.8 1-.8 2.1-.8h1.9v.1c-1.8 2-3.5 4.1-5.1 6.2 1.3 1.8 2.5 3.9 4.2 5.4.3.3.7.5 1.1.6-.2 1-.7 1.4-1.7 1.4-.7 0-1.4-.3-1.9-.9-1.6-1.9-3.1-3.9-4.4-6v6.8h-.9c-1.3 0-1.8-.9-1.8-1.8V30.8h.9c1.3 0 1.7.8 1.7 1.8M84.3 40.1h-1.7c.2 1.3 1.4 2.2 3 2.2 1.1 0 2.4-.2 3.3-1h.1v.8c0 1.4-.9 2.4-3.8 2.4s-5.3-2.4-5.2-5.3v-.1c0-3.6 2.2-5.8 5.2-5.8 2.2 0 4.3 1.6 4.3 4.1-.2 2.1-1.7 2.7-5.2 2.7m.5-4.5c-1.3 0-2.2 1-2.2 2.3v.4h1.2c2.5 0 3.1-.3 3.1-1-.1-1.1-.9-1.7-2.1-1.7M100.6 44.3c-1.2 0-1.9-.7-1.9-1.7v-4.2c0-1.8-.8-2.6-2.2-2.6-1.2 0-1.9.9-1.9 2.4v6.2h-.8c-1.1 0-1.9-.7-1.9-1.7V38c0-2.3 1.5-4.6 4.8-4.6 2.5 0 4.6 1.7 4.6 4.7v6.2h-.7zM105.4 32c.4-.4.8-.7 1.2-.7h.6v2.4h3.7v1.1c0 .6-.5 1.3-1.6 1.3h-2.1v4.2c0 1.4.6 1.9 1.7 1.9.9 0 1.5-.1 1.9-.4h.1v1c0 1.1-.8 1.8-2.3 1.8-2.7 0-4-1.5-4-4v-6.4c0-1.2.2-1.6.8-2.2M114.8 32.9c-.9 0-1.6-.7-1.5-1.6 0-.9.7-1.5 1.6-1.5.9 0 1.5.7 1.5 1.5-.1.9-.8 1.6-1.6 1.6m1.8 11.5c-2.1 0-3.2-1.2-3.2-3.3v-7.2h.8c1.2 0 1.9.6 1.9 2v5c0 1.1.5 1.4 1.6 1.4h.5v.6c0 1.1-.4 1.5-1.6 1.5M128.4 37.1c-.4-.6-1.4-1.1-2.9-1.1-1.6 0-2.9 1.2-2.9 2.8 0 1.9 1.1 3.3 3 3.3 1.5 0 2.4-.5 2.8-1h.1v1.2c0 1.3-1.2 2.2-3.2 2.2-2.9 0-5.5-2.3-5.5-5.3s2.1-5.7 5.8-5.7c1.7 0 2.9 1 2.9 2.3V37l-.1.1zM135.8 33.4c3.2 0 5 2.6 5 5.4 0 3.2-1.8 5.8-5.3 5.8-3.2 0-5-2.6-5-5.4 0-3.2 1.8-5.8 5.3-5.8m-.3 2.4c-1.5 0-2.3 1.3-2.3 3 0 2.1.8 3.4 2.5 3.4 1.5 0 2.3-1.3 2.3-3 .1-2.2-.7-3.4-2.5-3.4" fill="#fff"/></svg>