<svg xmlns="http://www.w3.org/2000/svg" width="150" height="75" viewBox="0 0 600 300"><style>.st0{fill-rule:evenodd;clip-rule:evenodd}.st1{fill:#fff}.st2{fill:#004b8d}.st3{fill:#026cb6}.st4,.st5{fill-rule:evenodd;clip-rule:evenodd;fill:#fff}.st5{fill:#026cb6}</style><path d="M503.04 97.792c-3.298-4.072-7.567-5.379-17.558-5.379l-35.308.002a97.851 97.851 0 0 0-4.162-4.912c-11.325-12.466-26.643-22.807-42.239-28.559-5.161 4.268-11.688 6.514-18.996 6.514-9.531 0-18.105-2.538-26.214-7.756-39.354-25.308-61.301-30.393-83.952-30.393-22.649 0-44.59 5.084-83.935 30.393-8.109 5.219-16.692 7.756-26.237 7.756-7.293 0-13.811-2.246-18.965-6.514-15.604 5.749-30.924 16.09-42.252 28.56a96.403 96.403 0 0 0-4.18 4.933l-51.782.002c-21.357 0-21.949 21.388-8.454 26.875 6.14 2.496 9.887 4.108 9.887 4.108L7.668 198.7h90.253c12.227 18.712 30.624 34.858 53.966 46.666 5.217-1.151 15.138-2.827 28.67-2.827 20.611 0 40.669 4.784 59.62 14.217 16.859 8.393 28.248 18.181 34.432 24.36 18.979-19.04 52.957-38.577 94.071-38.577 13.508 0 23.439 1.676 28.669 2.828 23.342-11.807 41.741-27.953 53.968-46.664h35.367c3.123-14.443 17.465-80.694 17.862-82.339 2.334-9.614 1.953-14.302-1.506-18.572z" fill="#004b8d"/><path d="M364.089 73.42c10.098 6.281 20.796 9.335 32.696 9.335 7.316 0 14.162-1.635 20.156-4.77a97.367 97.367 0 0 0-11.852-6.311c-6.016 3.345-12.922 5.086-20.313 5.086-7.854 0-15.176-1.401-22.148-4.238.49.301.968.59 1.461.898zM118.245 198.7h-6.442c10.341 13.587 24.476 25.501 41.777 34.802 1.163-.21 2.416-.418 3.75-.619-16.309-9.36-29.532-21.034-39.085-34.183z" fill="#026cb6"/><path d="M396.032 238.005c-67.577 5.376-68.415 14.077-104.974-45.566h-15.167a98507.285 98507.285 0 0 0 37.348 61.253c16.39 26.866 89.819 21.475 103.287 20.718 15.775-.884 20.453-10.1-20.494-36.405z" fill-rule="evenodd" clip-rule="evenodd" fill="#026cb6"/><path d="M493.78 218.109c-1.063-11.615-16.448-19.418-38.281-19.418-.23 0-.466.008-.696.012.001-.002.003-.002.004-.002H299.203l118.87 8.105a56.695 56.695 0 0 0-4.201 2.269H312.918l91.851 7.383a23.187 23.187 0 0 0-2.238 3.021h-70.96l67.75 5.925-8.551 15.951.078-.132c-1.794 3.38-2.438 6.809-1.841 10.133 2.06 11.478 18.06 17.926 39.811 16.045a93.353 93.353 0 0 0 10.774-1.584c11.938-2.466 22.806-7.058 30.599-12.924 3.237-2.438 5.82-5.008 7.706-7.632l12.629-16.414c2.52-3.49 3.593-7.052 3.254-10.738z" fill="#fff"/><g fill-rule="evenodd" clip-rule="evenodd" fill="#026cb6"><path d="M208.207 60.156c-.859-1.298-1.723-2.603-2.597-3.919h-12.628l-.013.008 2.462 4.047 1.45 2.382.554.91 6.848 11.253 1.246 2.048 1.613 2.651.862 1.417 12.124 19.921h14.538a2936.05 2936.05 0 0 0-20.657-31.913c32.844-19.418 51.928-23.491 71.354-23.491 14.097 0 30.248 3.135 47.508 10.035-25.222-13.766-41.612-16.892-58.26-16.892-18.374 0-36.444 3.82-66.404 21.543zM195.867 67.783c-9.719 6.034-20.011 8.978-31.427 8.978-7.379 0-14.277-1.741-20.288-5.086-10.973 4.874-21.563 12.195-30.022 20.761l16.245-.001c6.703-5.505 14.106-9.959 22.496-13.56 6.081 3.269 13.056 4.971 20.52 4.971 9.712 0 18.979-2.761 27.548-7.185-1.82-3.183-3.515-6.152-5.072-8.878z"/></g><path d="M165.488 50.193c6.615 0 11.279-1.694 16.928-5.328 40.688-26.173 64.687-32.312 88.971-32.785-7.511-1.494-14.594-2.019-21.749-2.019-23.899 0-46.983 5.782-88.155 34.506a49.294 49.294 0 0 1-4.791 2.961c2.357 1.789 5.247 2.665 8.796 2.665zM180.558 257.805c-4.418 0-8.386.203-11.859.501 38.548 5.127 67.28 27.709 80.939 43.485 3.208-3.702 7.248-7.779 12.046-11.917-10.793-10.043-39.246-32.069-81.126-32.069zM80.353 92.438a109.836 109.836 0 0 1 11.565-15.193c9.487-10.444 21.441-19.57 34.181-26.297-3.357-1.297-6.377-3.285-8.983-5.949-17.156 6.479-33.921 18.535-46.405 33.446a108.366 108.366 0 0 0-9.938 13.994l19.58-.001zM80.094 198.7H60.447c12.794 25.106 34.167 46.694 62.256 61.88 3.241-.828 10.054-2.299 19.618-2.978-27.879-14.683-49.207-35.168-62.227-58.902z"/><g fill-rule="evenodd" clip-rule="evenodd"><path d="M450.259 83.65c-12.331-13.571-29.16-24.754-46.168-30.681l-1.643-.573-1.265 1.191c-4.326 4.073-9.846 6.138-16.406 6.138-8.397 0-15.955-2.238-23.111-6.844-40.536-26.067-63.363-31.304-87.054-31.304-23.688 0-46.51 5.237-87.037 31.304-7.158 4.605-14.725 6.844-23.136 6.844-6.543 0-12.051-2.064-16.373-6.136l-1.265-1.192-1.642.571c-17.019 5.925-33.85 17.108-46.182 30.683a101.64 101.64 0 0 0-7.124 8.786h7.188a97.352 97.352 0 0 1 4.18-4.933c11.328-12.469 26.647-22.811 42.252-28.56 5.154 4.268 11.671 6.514 18.965 6.514 9.382 0 17.832-2.457 25.818-7.496 5.267 9.222 13.96 24.439 24.505 42.911h5.367l-27.16-44.629c37.906-24.034 59.44-28.934 81.643-28.934 22.65 0 44.597 5.084 83.952 30.393 8.108 5.218 16.683 7.756 26.214 7.756 7.308 0 13.835-2.246 18.996-6.514 15.597 5.751 30.914 16.093 42.239 28.559a97.405 97.405 0 0 1 4.162 4.912h7.188a101.594 101.594 0 0 0-7.103-8.766zM416.526 274.411c-13.468.757-86.897 6.147-103.287-20.718a101551.697 101551.697 0 0 1-37.348-61.253h-8.914a34351.212 34351.212 0 0 1 36.95 65.019c.279.492.578.977.887 1.458-12.209 6.575-22.457 14.428-30.204 22.2-6.185-6.18-17.573-15.968-34.432-24.36-18.951-9.433-39.009-14.217-59.62-14.217-13.533 0-23.454 1.676-28.67 2.827-23.342-11.808-41.739-27.954-53.966-46.666H91.13c12.882 21.132 33.098 39.293 59.111 52.256l.926.459 1.006-.235c3.731-.875 13.967-2.909 28.385-2.909 52.734 0 85.858 32.424 91.965 38.925l2.087 2.224 2.091-2.224c3.258-3.467 14.208-14.306 31.713-23.669 6.714 7.184 17.703 12.783 34.219 16.031 24.607 4.834 52.359 4.105 62.809 3.826l1.717-.044c9.737 0 18.63-8.598 20.05-12.478.059-.161.095-.317.131-.474-1.498 2.493-5.531 3.726-10.814 4.022z"/></g><path d="M449.052 247.753a93.014 93.014 0 0 1-10.871.651c-20.677 0-35.56-7-37.982-17.605l-6.423 11.978.006.004c-1.456 2.745-1.963 5.431-1.505 7.988 1.487 8.281 12.965 13.633 29.244 13.633h.001a82.37 82.37 0 0 0 7.01-.309 90.07 90.07 0 0 0 10.389-1.53c11.467-2.369 21.863-6.744 29.272-12.323 2.945-2.219 5.648-5.125 7.007-6.918l.03-.042 3.604-4.683c-8.063 4.597-18.54 7.831-29.782 9.156z"/><path d="M403.396 228.686c-1.058-11.548 17.576-23.208 41.623-26.045 24.046-2.838 44.396 4.222 45.454 15.771 1.058 11.545-17.578 23.207-41.623 26.044-24.047 2.837-44.397-4.226-45.454-15.77zM163.225 151.241c-1.943 3.618-4.595 8.265-7.023 11.962h2.369c3.089 0 4.608-.611 6.526-2.707 2.953-3.223 7.605-11.218 10.586-16.769 1.78-3.311 6.799-12.65 8.351-16.462 1.556-3.831.271-4.696-2.228-4.696h-9.997c-4.153 0-5.55 1.138-7.873 3.857-.695.813-1.586 2.111-2.565 3.658h7.979c2.495 0 3.781.864 2.224 4.696-1.548 3.811-6.568 13.15-8.349 16.461zM252.032 140.816c-.275 1.111-.538 1.891-1.1 2.882.055.009.341.009.415-.009.445-.834 1.094-1.752 1.836-2.651 6.638-8.047 16.817-20.4 22.225-26.97l-4.997-.002c-3.069 0-4.599 1.188-6.116 3.078-.352.435-4.195 5.105-9.108 11.071-1.1 4.386-2.221 8.867-3.155 12.601zM189.268 179.218l35.902-65.153h-8.317l-40.043 72.667h21.544s1.708-2.998 4.273-7.507l-13.359-.007zM254.093 179.218S280 132.58 280.862 130.861c.297-.594 1.215-2.151 1.629-2.745h-.515c-.597.816-1.457 1.862-2.228 2.781-1.196 1.423-11.669 14.04-21.46 25.819-7.583 13.692-16.651 30.016-16.651 30.016h22.448l4.105-7.515h-14.097zM227.161 179.218c-1.631 0-2.3-1.038-1.905-2.768.241-1.044 7.193-29.588 11.069-45.497.234-.956.573-2.227.832-2.864-.084 0-.393.009-.393.009s-.643 1.427-1.434 2.828l-11.698 20.58c-3.644 14.953-7.711 31.666-7.894 32.46-.395 1.73.273 2.767 1.904 2.767h10.587c1.224 0 2.298-.565 3.079-1.482.172-.206 1.956-2.525 4.642-6.032l-8.789-.001zM468.551 130.942a38.685 38.685 0 0 1 1.38-4.456l-.724-.002c-.76 1.188-1.745 2.529-3.215 4.371l-7.229 9.039c-.402 1.687-1.094 4.578-1.934 8.108h7.648c2.026-8.486 3.784-15.86 4.074-17.06zM459.324 179.218c-1.286 0-2.073-.914-1.677-2.571.077-.334 1.445-6.068 3.187-13.37h-20.766l-6.013 7.514h17.337c-1.744 7.303-3.11 13.036-3.19 13.369-.396 1.658.395 2.572 1.682 2.572h15.866s.632-2.904 1.63-7.515l-8.056.001zM87.443 133.543h4.179c5.112-4.287 16.025-13.44 23.202-19.478h-7.423c-2.594 0-3.263.297-4.956 1.78-.61.533-4.702 3.979-9.795 8.262l-5.207 9.436zM90.078 179.119c-1.631 0-2.468-.371-2.744-2.422-.173-1.292-2.556-19.077-3.598-26.842h-5.294l-4.146 7.514h2.624c1.041 7.766 3.425 25.551 3.6 26.841.274 2.055 1.11 2.523 2.743 2.523h19.987l-1.169-7.61c-5.176-.003-11.106-.004-12.003-.004zM459.246 114.066l-5.209-.001c-2.968 0-5.142.865-7.219 3.337l-2.347 2.789-1.3 2.377-.7.001c-13.525 16.079-53.979 64.164-53.979 64.164h24.239c1.385 0 2.375-.373 3.36-1.558.126-.151 1.938-2.415 4.774-5.957h-16.429l54.81-65.152z"/><g><path d="M340.539 157.378l4.133-7.514-17.89-.001-4.153 7.514z"/><path d="M288.463 179.249l35.935-65.233h-8.314l-40.075 72.717 62.262.03 4.164-7.514zM341.867 122.568l-4.152 7.515h25.156l4.131-7.515z"/></g><path d="M423.422 122.588l-4.136 7.515h11.426l4.106-7.515zM401.291 122.588l-20.842.001 4.668-8.522h-5.626l-4.674 8.502h-2.7l-4.127 7.535 20.842-.001-31.186 56.63h22.147l4.137-7.515h-13.826zM156.416 179.202h-23.135c-6.155 0-10.235-.676-12.184-4.884-2.749-5.927.771-13.769 10.652-31.827 8.239-15.06 12.626-22.282 18.386-27.387-3.23.778-6.645 2.063-9.878 4.202-8.255 5.464-11.511 12.88-20.967 30.701-9.992 18.832-8.796 26.84-5.691 31.734 2.449 3.854 7.341 4.976 13.497 4.976h16.865c9.417 0 15.45-2.127 21.355-6.708.779-.603 1.734-1.509 2.539-2.276-3.287.986-6.981 1.469-11.439 1.469zM40.055 179.221l36.017-65.253-26.805-.001 14.534 6.672-36.206 66.094h27.818l4.157-7.512z"/><g fill="#fff"><path d="M263.05 200.591c-.468-1.067-1.166-1.623-3.958-1.623h-7.093c-2.284 0-4.114.307-6.131 1.607-2.59 1.669-3.942 3.701-7.137 9.383-3.101 5.518-4.203 7.915-3.343 9.727.614 1.288 1.894 1.495 3.828 1.495h7.26c2.957 0 4.851-.649 6.704-2.05 2.351-1.776 4.064-4.604 6.354-8.734 2.816-5.076 4.339-7.932 3.516-9.805zm-7.815 4.713c-.485 1.167-2.152 4.021-2.712 5.032-.936 1.698-2.329 4.141-3.252 5.125-.604.64-1.079.827-2.049.827h-3.528c-.744 0-.904-.425-.65-1.144.386-1.099 1.908-3.728 2.606-4.951.794-1.396 2.338-4.241 3.136-5.146.728-.829 1.166-1.18 2.469-1.18h3.283c.781.001 1.185.267.697 1.437zM231.152 199.021s-6.308 11.757-6.688 12.419c-.484.851-.8 1.5-.982 2.12-.084 0-.136.007-.228-.004.069-.343.2-1.318.2-2.195-.001-.905-.1-12.344-.1-12.344l-8.779.003-11.864 22.211 6.481-.001s6.3-11.757 7.089-13.103c.432-.731.983-1.843 1.209-2.583h.243c-.108.56-.226 1.587-.222 2.604.003.569.51 13.082.51 13.082h7.748l11.865-22.207-6.482-.002zM173.17 199.019l-20.973.001 4.875 1.996-11.158 20.216 16.198.005c2.425 0 4.628-.464 6.119-2.253 1.406-1.685 2.281-3.317 3.219-5.304.993-2.103.193-3.547-2.118-3.625.014-.024.08-.17.099-.229 2.464.1 4.03-.85 5.214-2.899.476-.823 1.002-1.7 1.585-3.037 1.021-2.335.96-4.871-3.06-4.871zm-9.503 15.469c-.889 1.556-1.426 1.859-2.826 1.859-.827 0-3.588-.005-5.447-.01.7-1.27 1.477-2.674 2.253-4.085h5.235c1.496-.001 1.654.718.785 2.236zm4.631-8.649c-.697 1.431-1.231 1.709-2.183 1.709-.352 0-3.838-.003-5.869-.008l2.003-3.625h5.299c.932-.001 1.5.39.75 1.924zM203.469 206.632c2.515-4.488 2.431-7.615-1.86-7.615h-15.365l-11.879 22.21 6.708.044 4.524-8.158h3.077l.985 7.354c.085.625.341.739.837.739l6.11-.007-1.465-8.105c3.995-.177 5.614-1.625 8.328-6.462zm-7.194-.301c-.725 1.343-1.451 2.293-3.233 2.293h-4.955l2.612-4.71h4.775c1.087 0 1.801.565.801 2.417z"/></g><g fill="#fff"><path d="M335.242 66.688c-.563-1.312-1.397-1.99-4.744-1.99-2.253 0-6.15.007-8.506 0-2.594-.009-5.117.39-7.552 2.119-3.179 2.258-4.522 4.3-8.355 11.407-3.679 6.819-5.046 9.75-4.011 11.98.736 1.584 2.272 1.838 4.588 1.838h8.705c3.548 0 5.819-.801 8.042-2.524 2.267-1.757 4.036-4.355 6.073-7.952-.436.016-8.234.003-8.504.002-.816 1.431-1.634 2.762-2.26 3.432-.727.784-1.293 1.02-2.455 1.02h-4.232c-.891 0-1.08-.524-.779-1.411.461-1.353 2.646-5.074 3.169-6.069.865-1.646 2.788-5.204 3.722-6.336.92-1.116 1.394-1.479 2.957-1.479h3.936c.94 0 1.424.326.838 1.768-.268.658-1.516 2.978-1.516 2.978s8.039.028 8.432-.011c2.21-4.252 3.248-6.907 2.452-8.772zM295.978 64.802l-5.784 10.465h-10.775l5.775-10.466-15.945.001 6.002 2.456-13.74 24.897 8.586.006 6.079-11.017h10.768l-6.083 11.011 8.588.006 15.094-27.36z"/></g><g fill-rule="evenodd" clip-rule="evenodd" fill="#fff"><path d="M227.174 100.874a15583.517 15583.517 0 0 0-27.712-44.638h-3.323c5.728 9.429 15.402 25.351 27.131 44.637h3.904zM375.687 269.336c-54.335-4.337-55.431-16.607-63.782-30.007-4.281-6.871-8.892-14.416-14.6-23.896a6668.378 6668.378 0 0 0-13.913-22.994h-4.36c13.139 21.54 25.76 42.197 36.226 59.265 9.854 16.069 40.734 20.188 65.826 20.934 15.635.465 33.546-.585 33.546-.585s-24.301-1.549-38.943-2.717z"/></g><path fill="#fff" d="M466.273 238.469l-21.475-8.87-30.661 8.737 17.128-15.267-14.927-8.89h24.516l13.636-10.348 3.525 10.348 27.054-.001-23.624 10.055zM91.854 92.438a101.64 101.64 0 0 1 7.124-8.786c12.332-13.575 29.163-24.758 46.182-30.683l1.642-.571 1.265 1.192c4.322 4.072 9.83 6.136 16.373 6.136 8.411 0 15.978-2.239 23.136-6.844 40.526-26.067 63.348-31.304 87.037-31.304 23.691 0 46.518 5.237 87.054 31.304 7.156 4.606 14.714 6.844 23.111 6.844 6.561 0 12.08-2.064 16.406-6.138l1.265-1.191 1.643.573c17.008 5.927 33.837 17.11 46.168 30.681a102.06 102.06 0 0 1 7.097 8.765l11.508-.001a110.178 110.178 0 0 0-11.55-15.175c-13.366-14.71-31.623-26.837-50.086-33.271l-7.102-2.476-5.476 5.156c-2.536 2.386-5.765 3.545-9.873 3.545-6.602 0-12.305-1.692-17.955-5.33-42.498-27.33-66.791-32.818-92.21-32.818-25.418 0-49.708 5.488-92.196 32.82-5.649 3.634-10.313 5.328-16.928 5.328-4.088 0-7.305-1.158-9.835-3.542l-5.476-5.158-8.153 2.473c-18.473 6.432-36.735 18.561-50.106 33.28A109.836 109.836 0 0 0 80.354 92.44c3.605-.002 7.446-.002 11.5-.002z"/><g><path d="M308.415 263.528c-17.506 9.363-28.456 20.202-31.714 23.669l-2.091 2.224-2.087-2.224c-6.107-6.501-39.231-38.925-91.965-38.925-14.418 0-24.654 2.034-28.385 2.909l-1.006.235-.926-.459c-26.014-12.963-46.229-31.124-59.111-52.256H80.096c13.584 24.767 36.214 45.997 65.895 60.788l4.004 1.995 4.354-1.021c3.41-.799 12.787-2.656 26.209-2.656 48.809 0 79.382 29.919 85.015 35.918l9.034 9.619 9.039-9.615c3.22-3.425 14.582-14.651 32.821-23.653-3.178-1.993-5.845-4.186-8.052-6.548z" fill="#fff"/></g><g fill="#fff"><path d="M209.212 111.841c-1.49-3.487-3.707-5.307-12.604-5.307l-22.595.002c-7.278 0-13.11 1.004-19.538 5.255-8.257 5.461-12.557 12.112-22.726 30.699-9.882 18.059-13.401 25.9-10.652 31.827 1.949 4.208 6.029 4.884 12.184 4.884h23.135c9.417 0 15.452-2.127 21.356-6.708 7.488-5.805 12.945-15.061 20.244-28.569 8.973-16.611 13.815-25.954 11.196-32.083zm-25.179 15.423c-1.551 3.812-6.571 13.151-8.351 16.462-2.981 5.551-7.634 13.546-10.586 16.769-1.918 2.096-3.437 2.707-6.526 2.707h-10.726c-2.371 0-2.878-1.389-2.075-3.744 1.225-3.597 5.79-12.196 8.016-16.201 2.531-4.559 7.62-13.873 10.151-16.832 2.322-2.72 3.72-3.857 7.873-3.857h9.997c2.498 0 3.783.865 2.227 4.696zM285.166 106.552c-3.062 0-4.596 1.186-6.116 3.077-.726.908-16.686 20.278-25.868 31.409-.742.899-1.391 1.817-1.836 2.651-.074.018-.36.018-.415.009.563-.992.825-1.771 1.1-2.882 2.885-11.53 7.563-30.197 7.793-31.15.52-2.151-.519-3.114-2.486-3.114H229.31l-40.043 72.667h18.602s26.668-46.89 27.46-48.292c.791-1.4 1.434-2.828 1.434-2.828s.308-.009.393-.009c-.259.637-.598 1.908-.832 2.864-3.876 15.909-10.828 44.453-11.069 45.497-.396 1.73.274 2.768 1.905 2.768h10.585c1.224 0 2.299-.568 3.076-1.485.775-.906 36.653-44.129 38.926-46.836.771-.919 1.631-1.965 2.228-2.781h.515c-.414.594-1.332 2.15-1.629 2.745-.862 1.72-26.769 48.357-26.769 48.357h22.45l39.729-72.666-31.105-.001zM352.992 149.864l8.487-15.423-26.172.001 6.56-11.874 32.95.001 8.833-16.068-55.113.001-40.074 72.747h62.276l8.845-16.016h-40.191l7.389-13.37zM443.172 122.588l8.762-16.036h-62.701l-8.784 16.037 20.842-.001-31.187 56.63h22.149l31.169-56.63zM490.565 106.553l-20.587-.001c-2.965 0-5.143.866-7.217 3.336l-58.323 69.33h20.75c1.385 0 2.375-.371 3.364-1.558.208-.25 5.045-6.293 11.516-14.383h20.766c-1.741 7.301-3.109 13.035-3.187 13.37-.396 1.657.391 2.571 1.677 2.571h18.886s14.635-67.549 15.028-69.255c.418-1.83-.125-3.41-2.673-3.41zm-22.014 24.389c-.29 1.199-2.048 8.573-4.072 17.06h-12.197c4.904-6.131 9.766-12.216 13.711-17.147 1.47-1.841 2.455-3.182 3.215-4.371l.724.002a38.431 38.431 0 0 0-1.381 4.456zM148.707 106.552h-22.135c-2.594 0-3.262.296-4.958 1.779-1.436 1.259-22.293 18.755-29.993 25.212h-4.179l14.892-26.995-41.719.003 15.949 6.524-36.509 66.145h22.176l16.21-29.366h5.294c1.042 7.765 3.425 25.55 3.598 26.842.276 2.051 1.112 2.422 2.744 2.422h19.988l-5.337-34.516 43.979-38.05z"/></g></svg>