<svg xmlns="http://www.w3.org/2000/svg" viewBox="0 0 480.4 480.4"><g fill="#65cecc"><circle cx="96.2" cy="304.4" r="32"/><circle cx="192.2" cy="304.4" r="32"/><circle cx="288.2" cy="304.4" r="32"/><circle cx="384.2" cy="304.4" r="32"/></g><g fill="#e9cd4b"><path d="M100.2 390.8c-7.2-18.4-24.8-30.4-44-30.4-27.2.8-48.8 24-48 51.2v60.8h88v-60.8c0-7.2 1.6-14.4 4-20.8z"/><path d="M192.2 472.4h-96v-60.8c-.8-27.2 20.8-50.4 48-51.2 27.2.8 48.8 24 48 51.2v60.8z"/><path d="M288.2 472.4h-96v-60.8c-.8-27.2 20.8-50.4 48-51.2 27.2.8 48.8 24 48 51.2v60.8zM424.2 360.4c-19.2 0-36.8 12-44 30.4 2.4 6.4 4 13.6 4 20v61.6h88v-60.8c.8-27.2-20.8-50.4-48-51.2z"/><path d="M384.2 472.4h-96v-60.8c-.8-27.2 20.8-50.4 48-51.2 27.2.8 48.8 24 48 51.2v60.8z"/><circle cx="424.2" cy="328.4" r="32"/><circle cx="336.2" cy="328.4" r="32"/><circle cx="240.2" cy="328.4" r="32"/><circle cx="144.2" cy="328.4" r="32"/><circle cx="56.2" cy="328.4" r="32"/></g><g fill="#de2f55"><path d="M329 24.4c-21.6-20.8-55.2-20.8-76.8 0l-12 11.2-12-11.2c-21.6-20.8-55.2-20.8-76.8 0-20 20-20.8 52-.8 72.8l.8.8 88.8 86.4L329 97.2c20-19.2 20-52 0-72.8zM110.6 137.2c-12.8-12-33.6-12-46.4 0-12.8-12-33.6-12-46.4 0-12 11.2-12.8 29.6-1.6 41.6l1.6 1.6 46.4 44 46.4-43.2c12-11.2 12.8-29.6 1.6-41.6 0-.8-.8-1.6-1.6-2.4zM462.6 137.2c-12.8-12-33.6-12-46.4 0-12.8-12-33.6-12-46.4 0-12 11.2-12.8 29.6-1.6 41.6l1.6 1.6 46.4 44 46.4-43.2c12-11.2 12.8-29.6 1.6-41.6 0-.8-.8-1.6-1.6-2.4z"/></g><path d="M449.8 358.8c16.8-13.6 19.2-39.2 5.6-56-8-9.6-19.2-14.4-31.2-14.4H421c-6.4-14.4-20.8-24-36.8-24-16.8 0-31.2 10.4-36.8 25.6-7.2-2.4-14.4-2.4-21.6 0-8-20.8-30.4-31.2-51.2-23.2-10.4 4-19.2 12-23.2 23.2-7.2-2.4-14.4-2.4-21.6 0-8-20.8-30.4-31.2-51.2-23.2-10.4 4-19.2 12.8-23.2 23.2-7.2-2.4-14.4-2.4-21.6 0-6.4-15.2-20.8-25.6-37.6-25.6-16 0-30.4 9.6-36.8 24h-3.2c-21.6 0-40 17.6-40 40 0 12 5.6 23.2 14.4 31.2-19.2 9.6-30.4 29.6-30.4 52v60.8c0 4.8 3.2 8 8 8h464c4.8 0 8-3.2 8-8v-60.8c0-22.4-11.2-42.4-30.4-52.8zm-25.6-54.4c13.6 0 24 10.4 24 24s-10.4 24-24 24-24-10.4-24-24 10.4-24 24-24zm-40-24c8.8 0 16.8 4.8 20.8 12.8-12.8 7.2-20.8 20.8-20.8 35.2-2.4 0-5.6-.8-8-1.6-.8-11.2-5.6-22.4-15.2-29.6 3.2-9.6 12.8-16.8 23.2-16.8zm-48 24c13.6 0 24 10.4 24 24s-10.4 24-24 24-24-10.4-24-24 10.4-24 24-24zm-48-24c10.4 0 20 7.2 23.2 16.8-8.8 7.2-14.4 17.6-14.4 29.6-5.6 1.6-11.2 1.6-16 0-.8-11.2-5.6-22.4-15.2-29.6 2.4-9.6 12-16.8 22.4-16.8zm-48 24c4 0 8.8.8 12 3.2 11.2 6.4 15.2 21.6 8 32.8-7.2 11.2-21.6 15.2-32.8 8-11.2-6.4-15.2-21.6-8-32.8 4.8-6.4 12-11.2 20.8-11.2zm-48-24c10.4 0 20 7.2 23.2 16.8-8.8 7.2-14.4 17.6-14.4 29.6-5.6 1.6-11.2 1.6-16 0-.8-11.2-5.6-22.4-14.4-29.6 1.6-9.6 11.2-16.8 21.6-16.8zm-48 24c13.6 0 24 10.4 24 24s-10.4 24-24 24-24-10.4-24-24 10.4-24 24-24zm-48-24c10.4 0 20 7.2 23.2 16.8-8.8 7.2-14.4 17.6-15.2 29.6-2.4.8-5.6 1.6-8 1.6 0-14.4-8-28-20.8-35.2 4-8 12-12.8 20.8-12.8zm-40 24c13.6 0 24 10.4 24 24s-10.4 24-24 24-24-10.4-24-24 10.4-24 24-24zm32 107.2v52.8h-72v-52.8c-.8-23.2 16.8-42.4 40-43.2 15.2 0 28.8 9.6 35.2 23.2-2.4 6.4-3.2 12.8-3.2 20zm12-36.8c-4.8-6.4-11.2-12-18.4-16 4.8-4 8.8-8.8 11.2-14.4h3.2c4 0 7.2-.8 11.2-1.6 2.4 6.4 6.4 12 12 16-8 4-14.4 9.6-19.2 16zm84 89.6h-80v-52.8c-.8-23.2 16.8-42.4 40-43.2 23.2.8 40.8 20 40 43.2v52.8zm-14.4-105.6c4.8-4 8.8-9.6 12-16 7.2 2.4 14.4 2.4 21.6 0 2.4 6.4 6.4 12 12 16-9.6 4.8-16.8 12.8-22.4 22.4-6.4-9.6-13.6-16.8-23.2-22.4zm110.4 105.6h-80v-52.8c-.8-23.2 16.8-42.4 40-43.2 23.2.8 40.8 20 40 43.2v52.8zm-14.4-105.6c4.8-4 8.8-9.6 12-16 7.2 2.4 14.4 2.4 21.6 0 2.4 6.4 6.4 12 12 16-9.6 4.8-16.8 12.8-22.4 22.4-6.4-9.6-13.6-16.8-23.2-22.4zm110.4 105.6h-80v-52.8c-1.6-22.4 15.2-41.6 36.8-43.2s41.6 15.2 43.2 36.8v59.2zm4-89.6c-4.8-6.4-11.2-12-18.4-16 4.8-4 8.8-9.6 12-16 3.2.8 7.2 1.6 11.2 1.6h3.2c2.4 5.6 6.4 11.2 11.2 14.4-8 4-14.4 9.6-19.2 16zm84 89.6h-72v-52.8c0-6.4-.8-13.6-3.2-20 6.4-13.6 20-22.4 35.2-23.2 23.2.8 40.8 20 40 43.2v52.8zM240.2 192.4c-2.4 0-4-.8-5.6-2.4l-88.8-87.2c-23.2-23.2-24-60.8-.8-84l.8-.8c24-24 63.2-24 88 0l6.4 6.4 6.4-6.4c24-24 63.2-24 88 0 23.2 23.2 24 60.8.8 84l-.8.8-88.8 87.2c-1.6 1.6-3.2 2.4-5.6 2.4zm-50.4-176c-12 0-24 4.8-32.8 13.6-16.8 16.8-17.6 44-.8 61.6l.8.8 83.2 80.8 83.2-81.6c16.8-16.8 17.6-44 .8-61.6l-.8-.8c-18.4-17.6-47.2-17.6-65.6 0l-12 12c-3.2 3.2-8 3.2-11.2 0l-12-12c-8.8-8-20.8-12.8-32.8-12.8zM64.2 232.4c-2.4 0-4-.8-5.6-2.4l-46.4-43.2C-3 173.2-3.8 149.2 9.8 134l2.4-2.4c14.4-12.8 36-15.2 52-4 16-10.4 37.6-8.8 52 4 15.2 13.6 16 37.6 2.4 52.8l-2.4 2.4L69.8 230c-1.6 1.6-3.2 2.4-5.6 2.4zm-23.2-96c-6.4 0-12.8 2.4-17.6 7.2-8.8 8-9.6 21.6-1.6 30.4l1.6 1.6L64.2 214l40.8-38.4c8.8-8 9.6-21.6 1.6-30.4l-1.6-1.6c-10.4-8.8-25.6-8.8-35.2 0-3.2 3.2-8 3.2-11.2 0-4.8-4.8-11.2-7.2-17.6-7.2zM416.2 232.4c-2.4 0-4-.8-5.6-2.4l-46.4-43.2c-15.2-13.6-16-37.6-2.4-52.8l2.4-2.4c14.4-12.8 36-15.2 52-4 16-10.4 37.6-8.8 52 4 15.2 13.6 16 37.6 2.4 52.8l-2.4 2.4-46.4 43.2c-1.6 1.6-3.2 2.4-5.6 2.4zm-23.2-96c-6.4 0-12.8 2.4-17.6 7.2-8.8 8-9.6 21.6-1.6 30.4l1.6 1.6 40.8 38.4 40.8-38.4c8.8-8 9.6-21.6 1.6-30.4l-1.6-1.6c-10.4-8.8-25.6-8.8-35.2 0-3.2 3.2-8 3.2-11.2 0-4.8-4.8-11.2-7.2-17.6-7.2z"/></svg>