<svg xmlns="http://www.w3.org/2000/svg" viewBox="0 0 480 480"><path d="M304 40v32H176V40H64v432h352V40H304z" fill="#65cecc"/><path d="M176 8h128v64H176V8z" fill="#816892"/><path d="M96 240h48v104H96V240z" fill="#e9cd4b"/><path d="M176 208h48v136h-48V208z" fill="#f0b77d"/><path d="M256 176h48v168h-48V176z" fill="#00ba54"/><path d="M336 144h48v200h-48V144z" fill="#de2f55"/><path d="M416 32H312V8a7.998 7.998 0 0 0-7.996-8H176a7.998 7.998 0 0 0-8 7.996V32H64a7.998 7.998 0 0 0-8 7.996V472a7.998 7.998 0 0 0 7.996 8H416a7.998 7.998 0 0 0 8-7.996V40a7.998 7.998 0 0 0-7.996-8H416zM184 16h112v48H184V16zm224 448H72V48h96v24a7.998 7.998 0 0 0 7.996 8H304a7.998 7.998 0 0 0 8-7.996V48h96v416z"/><path d="M88 368h176v16H88v-16zM280 368h112v16H280v-16zM88 400h304v16H88v-16zM88 432h128v16H88v-16zM232 432h160v16H232v-16zM144 352H96a7.998 7.998 0 0 1-8-7.996V240a7.998 7.998 0 0 1 7.996-8H144a7.998 7.998 0 0 1 8 7.996V344a7.998 7.998 0 0 1-7.996 8H144zm-40-16h32v-88h-32v88zM224 352h-48a7.998 7.998 0 0 1-8-7.996V208a7.998 7.998 0 0 1 7.996-8H224a7.998 7.998 0 0 1 8 7.996V344a7.998 7.998 0 0 1-7.996 8H224zm-40-16h32V216h-32v120zM304 352h-48a7.998 7.998 0 0 1-8-7.996V176a7.998 7.998 0 0 1 7.996-8H304a7.998 7.998 0 0 1 8 7.996V344a7.998 7.998 0 0 1-7.996 8H304zm-40-16h32V184h-32v152zM384 352h-48a7.998 7.998 0 0 1-8-7.996V144a7.998 7.998 0 0 1 7.996-8H384a7.998 7.998 0 0 1 8 7.996V344a7.998 7.998 0 0 1-7.996 8H384zm-40-16h32V152h-32v184zM100.238 198.781l-8.477-13.563 64-40a7.972 7.972 0 0 1 4.238-1.219h69.578l69.984-46.656a8.024 8.024 0 0 1 2.867-1.188l80-16 3.141 15.688-78.449 15.688-70.683 47.124a8.009 8.009 0 0 1-4.438 1.344h-69.707l-62.054 38.782z"/></svg>