<?xml version="1.0" encoding="iso-8859-1"?>
<!-- Generator: Adobe Illustrator 19.0.0, SVG Export Plug-In . SVG Version: 6.00 Build 0)  -->
<svg version="1.1" id="Capa_1" xmlns="http://www.w3.org/2000/svg" xmlns:xlink="http://www.w3.org/1999/xlink" x="0px" y="0px"
	 viewBox="0 0 480.011 480.011" style="enable-background:new 0 0 480.011 480.011;" xml:space="preserve">
<path style="fill:#E9CD4B;" d="M240.006,76.006l-64,392h128L240.006,76.006z"/>
<g>
	<circle style="fill:#65CECC;" cx="88.006" cy="316.006" r="80"/>
	<circle style="fill:#65CECC;" cx="392.006" cy="316.006" r="80"/>
</g>
<circle style="fill:#DE2F55;" cx="240.006" cy="60.006" r="16"/>
<g>
	<circle style="fill:#00BA54;" cx="88.006" cy="300.006" r="32"/>
	<path style="fill:#00BA54;" d="M94.855,332.006H81.156c-18.308,0-33.15,14.842-33.15,33.15c0,0,0,0,0,0v20.06
		c24.726,14.387,55.274,14.387,80,0v-20.06C128.006,346.848,113.164,332.006,94.855,332.006
		C94.856,332.006,94.855,332.006,94.855,332.006z"/>
</g>
<g>
	<circle style="fill:#DE2F55;" cx="392.006" cy="300.006" r="32"/>
	<path style="fill:#DE2F55;" d="M398.855,332.006h-13.699c-18.308,0-33.15,14.842-33.15,33.15c0,0,0,0,0,0v20.06
		c24.726,14.387,55.274,14.387,80,0v-20.06C432.006,346.848,417.164,332.006,398.855,332.006
		C398.856,332.006,398.855,332.006,398.855,332.006L398.855,332.006z"/>
</g>
<path d="M249.119,82.185c12.262-5.033,18.122-19.054,13.088-31.316s-19.054-18.122-31.316-13.088
	c-12.262,5.033-18.122,19.054-13.088,31.316c2.437,5.937,7.151,10.651,13.088,13.088l-62.781,384.532
	c-0.71,4.362,2.25,8.475,6.613,9.185c0.424,0.069,0.852,0.104,1.282,0.104h128c4.42-0.002,8.001-3.587,7.999-8.007
	c0-0.429-0.035-0.858-0.104-1.282L249.119,82.185z M277.834,357.345l-62.379-34.022l51.246-34.165L277.834,357.345z M240.006,52.006
	c4.418,0,8,3.582,8,8s-3.582,8-8,8s-8-3.582-8-8C232.011,55.59,235.59,52.011,240.006,52.006z M240.006,125.654l20.887,127.926
	l-35.91-35.91L240.006,125.654z M221.806,237.12l37.641,37.644l-49.135,32.756L221.806,237.12z M205.632,336.188l63.358,34.56
	l-73.624,28.316L205.632,336.188z M185.416,460.006l6.963-42.647l89.626-34.471l12.591,77.119H185.416z"/>
<g>
	<path style="fill:#65CECC;" d="M272.006,100.006v-16c13.255,0.018,24.015-10.712,24.033-23.967s-10.712-24.015-23.967-24.033l0,0
		v-16c22.091,0.018,39.985,17.942,39.967,40.033S294.097,100.024,272.006,100.006z"/>
	<path style="fill:#65CECC;" d="M208.006,100.006c-22.091,0-40-17.909-40-40s17.909-40,40-40v16c-13.255,0-24,10.745-24,24
		s10.745,24,24,24V100.006z"/>
	<path style="fill:#65CECC;" d="M312.006,116.006v-16c22.091,0,40-17.909,40-40s-17.909-40-40-40v-16c30.928,0,56,25.072,56,56
		S342.934,116.006,312.006,116.006z"/>
	<path style="fill:#65CECC;" d="M168.006,116.006c-30.928,0-56-25.072-56-56s25.072-56,56-56v16c-22.091,0-40,17.909-40,40
		s17.909,40,40,40V116.006z"/>
</g>
<path d="M80.006,188.006h16v16h-16V188.006z"/>
<path d="M80.006,156.006h16v16h-16V156.006z"/>
<path d="M80.006,124.006h16v16h-16V124.006z"/>
<path d="M80.006,92.006h16v16h-16V92.006z"/>
<path d="M80.006,60.006h16v16h-16V60.006z"/>
<path d="M96.006,228.411v-8.405h-16v8.405c-48.4,4.418-84.054,47.236-79.636,95.636s47.236,84.054,95.636,79.636
	s84.054-47.236,79.636-95.636C171.782,265.767,138.286,232.271,96.006,228.411z M120.006,380.408c-20.131,10.131-43.869,10.131-64,0
	v-15.253c0.016-13.883,11.266-25.133,25.148-25.148h13.703c13.883,0.016,25.133,11.266,25.148,25.148V380.408z M64.006,300.006
	c0-13.255,10.745-24,24-24s24,10.745,24,24s-10.745,24-24,24C74.757,323.991,64.02,313.255,64.006,300.006z M136.006,369.518v-4.363
	c-0.052-14.856-8.134-28.522-21.127-35.725c16.364-14.842,17.598-40.138,2.756-56.502s-40.138-17.598-56.502-2.756
	c-16.364,14.842-17.598,40.138-2.756,56.502c0.873,0.963,1.793,1.883,2.756,2.756c-12.993,7.203-21.074,20.869-21.127,35.724v4.364
	c-29.639-26.51-32.175-72.027-5.666-101.666s72.027-32.175,101.666-5.666s32.175,72.027,5.666,101.666
	C139.889,365.844,137.998,367.736,136.006,369.518L136.006,369.518z"/>
<path d="M384.006,188.006h16v16h-16V188.006z"/>
<path d="M400.006,228.411v-8.405h-16v8.405c-48.4,4.418-84.054,47.236-79.636,95.636s47.236,84.054,95.636,79.636
	s84.054-47.236,79.636-95.636C475.782,265.767,442.286,232.271,400.006,228.411z M360.006,380.408v-15.253
	c0.016-13.883,11.266-25.133,25.148-25.148h13.703c13.883,0.016,25.133,11.266,25.148,25.148v15.253
	C403.875,390.538,380.136,390.538,360.006,380.408z M392.006,324.006c-13.255,0-24-10.745-24-24s10.745-24,24-24s24,10.745,24,24
	C415.991,313.255,405.255,323.991,392.006,324.006z M440.006,369.518v-4.363c-0.052-14.856-8.134-28.522-21.127-35.725
	c16.364-14.842,17.598-40.138,2.756-56.502c-14.842-16.364-40.138-17.598-56.502-2.756c-16.364,14.842-17.598,40.138-2.756,56.502
	c0.873,0.963,1.793,1.883,2.756,2.756c-12.993,7.203-21.074,20.869-21.127,35.724v4.364c-29.639-26.51-32.175-72.027-5.666-101.666
	c26.51-29.639,72.027-32.175,101.666-5.666c29.639,26.51,32.175,72.027,5.666,101.666
	C443.889,365.844,441.998,367.736,440.006,369.518L440.006,369.518z"/>
<path d="M384.006,156.006h16v16h-16V156.006z"/>
<path d="M384.006,124.006h16v16h-16V124.006z"/>
<path d="M384.006,92.006h16v16h-16V92.006z"/>
<path d="M384.006,60.006h16v16h-16V60.006z"/>
<g>
</g>
<g>
</g>
<g>
</g>
<g>
</g>
<g>
</g>
<g>
</g>
<g>
</g>
<g>
</g>
<g>
</g>
<g>
</g>
<g>
</g>
<g>
</g>
<g>
</g>
<g>
</g>
<g>
</g>
</svg>
