<svg id="kentico-logo" data-name="kentico-logo" xmlns="http://www.w3.org/2000/svg" viewBox="0 0 163 74" width="163" height="74">
	<title>kentico logo</title>
	<rect width="163" height="74" style="fill: #f05a22"/>
	<path style="fill: #ffffff" d="M37,32.2c2.6,0,4.7,2.1,4.7,4.7c0,2.6-2.1,4.7-4.7,4.7c-2.6,0-4.7-2.1-4.7-4.7C32.3,34.4,34.4,32.2,37,32.2"/>
	<path style="fill: #ffffff" d="M31.8,46.9l-8,8c0,0-5.8-3.5-2.4-6.9c1.8-1.8,4-4,5.7-5.7C30,39.4,34.7,44,31.8,46.9"/>
	<path style="fill: #ffffff" d="M42.2,27.1l8-8c0,0,5.8,3.5,2.4,6.9c-1.8,1.8-4.1,4-5.7,5.7C44,34.5,39.3,30,42.2,27.1"/>
	<path style="fill: #ffffff" d="M27.1,31.8c-3.2-3.2-8-8-8-8s3.5-5.8,6.9-2.4c1.8,1.8,4,4,5.7,5.7C34.5,30,30,34.6,27.1,31.8"/>
	<path style="fill: #ffffff" d="M46.9,42.2c3.2,3.2,8,8,8,8S51.4,56,48,52.6l-5.7-5.7C39.4,44,44,39.3,46.9,42.2"/>
	<path style="fill: #ffffff" d="M47.7,33.7h11.3c0,0,1.6,6.5-3.2,6.5h-8C43.7,40.3,43.6,33.7,47.7,33.7"/>
	<path style="fill: #ffffff" d="M26.3,40.3H15.1c0,0-1.6-6.5,3.2-6.5h8C30.3,33.7,30.4,40.3,26.3,40.3"/>
	<path style="fill: #ffffff" d="M40.3,47.7v11.3c0,0-6.5,1.6-6.5-3.2c0-2.6,0-5.7,0-8C33.7,43.7,40.3,43.6,40.3,47.7"/>
	<path style="fill: #ffffff" d="M33.7,26.3c0-4.5,0-11.3,0-11.3s6.5-1.6,6.5,3.2v8C40.3,30.3,33.7,30.4,33.7,26.3"/>
	<path style="fill: #ffffff" d="M70.7,32.6v4.2c1.2-1.8,2.4-3.6,3.9-5.2c0.7-0.8,1-0.8,2.1-0.8h1.9v0.1c-1.8,2-3.5,4.1-5.1,6.2
		c1.3,1.8,2.5,3.9,4.2,5.4c0.3,0.3,0.7,0.5,1.1,0.6c-0.2,1-0.7,1.4-1.7,1.4c-0.7,0-1.4-0.3-1.9-0.9c-1.6-1.9-3.1-3.9-4.4-6v6.8h-0.9
		c-1.3,0-1.8-0.9-1.8-1.8V30.8H69C70.3,30.8,70.7,31.6,70.7,32.6"/>
	<path style="fill: #ffffff" d="M84.3,40.1h-1.7c0.2,1.3,1.4,2.2,3,2.2c1.1,0,2.4-0.2,3.3-1h0.1v0.8c0,1.4-0.9,2.4-3.8,2.4
		c-2.9,0-5.3-2.4-5.2-5.3c0,0,0-0.1,0-0.1c0-3.6,2.2-5.8,5.2-5.8c2.2,0,4.3,1.6,4.3,4.1C89.3,39.5,87.8,40.1,84.3,40.1 M84.8,35.6
		c-1.3,0-2.2,1-2.2,2.3l0,0.4h1.2c2.5,0,3.1-0.3,3.1-1C86.8,36.2,86,35.6,84.8,35.6"/>
	<path style="fill: #ffffff" d="M100.6,44.3c-1.2,0-1.9-0.7-1.9-1.7v-4.2c0-1.8-0.8-2.6-2.2-2.6c-1.2,0-1.9,0.9-1.9,2.4v6.2h-0.8
		c-1.1,0-1.9-0.7-1.9-1.7V38c0-2.3,1.5-4.6,4.8-4.6c2.5,0,4.6,1.7,4.6,4.7v6.2L100.6,44.3z"/>
	<path style="fill: #ffffff" d="M105.4,32c0.4-0.4,0.8-0.7,1.2-0.7h0.6v2.4h3.7v1.1c0,0.6-0.5,1.3-1.6,1.3h-2.1v4.2c0,1.4,0.6,1.9,1.7,1.9
		c0.9,0,1.5-0.1,1.9-0.4h0.1v1c0,1.1-0.8,1.8-2.3,1.8c-2.7,0-4-1.5-4-4v-6.4C104.6,33,104.8,32.6,105.4,32"/>
	<path style="fill: #ffffff" d="M114.8,32.9c-0.9,0-1.6-0.7-1.5-1.6c0-0.9,0.7-1.5,1.6-1.5c0.9,0,1.5,0.7,1.5,1.5
		C116.3,32.2,115.6,32.9,114.8,32.9 M116.6,44.4c-2.1,0-3.2-1.2-3.2-3.3v-7.2h0.8c1.2,0,1.9,0.6,1.9,2v5c0,1.1,0.5,1.4,1.6,1.4h0.5
		v0.6C118.2,44,117.8,44.4,116.6,44.4"/>
	<path style="fill: #ffffff" d="M128.4,37.1c-0.4-0.6-1.4-1.1-2.9-1.1c-1.6,0-2.9,1.2-2.9,2.8c0,1.9,1.1,3.3,3,3.3c1.5,0,2.4-0.5,2.8-1h0.1v1.2
		c0,1.3-1.2,2.2-3.2,2.2c-2.9,0-5.5-2.3-5.5-5.3s2.1-5.7,5.8-5.7c1.7,0,2.9,1,2.9,2.3v1.2L128.4,37.1z"/>
	<path style="fill: #ffffff" d="M135.8,33.4c3.2,0,5,2.6,5,5.4c0,3.2-1.8,5.8-5.3,5.8c-3.2,0-5-2.6-5-5.4C130.5,36,132.3,33.4,135.8,33.4
		 M135.5,35.8c-1.5,0-2.3,1.3-2.3,3c0,2.1,0.8,3.4,2.5,3.4c1.5,0,2.3-1.3,2.3-3C138.1,37,137.3,35.8,135.5,35.8"/>		 
</svg>
