<?xml version="1.0" encoding="UTF-8"?><svg id="Layer_1" xmlns="http://www.w3.org/2000/svg" viewBox="0 0 600 280"><polygon points="291.06 137.19 312.76 165.04 297.48 165.04 279.33 140.66 279.33 165.04 266.55 165.04 266.55 109.81 279.33 109.81 279.33 134.34 297.56 109.81 312.71 109.81 291.06 137.19"/><path d="M340.72,141.84c-.08-5-2.92-7.73-8.05-7.73s-8.36,3.08-8.44,7.73h16.49Zm11.6,7.5h-28.09c.23,5,3.55,7.65,8.91,7.65,3.71,0,6.08-1,7.1-3.39h11.82c-1.18,7.49-8.84,12.46-18.94,12.46-12.94,0-20.91-7.34-20.91-20s8.13-20,20.52-20,19.88,7.34,19.88,18.07c.01,1.74-.09,3.48-.29,5.21Z"/><path d="M359.58,127.01h12.07v5.49c2.21-4.26,6.55-6.55,12.31-6.55,9.23,0,13.89,5.21,13.89,15.54v23.52h-12.16v-19.51c0-6.39-1.81-9.31-6.7-9.31s-7.34,3.16-7.34,9v19.89h-12.07v-38.07Z"/><path d="M430.91,155.41v9.63c-2.66,.44-5.35,.65-8.05,.63-5.68,0-13.49-1.26-13.49-14v-15.12h-6v-9.54h6v-11.29h12.07v11.29h8.62v9.54h-8.6v12.63c0,5.6,2.29,6.47,5.28,6.47,1.39,0,2.79-.07,4.17-.24Z"/><path d="M437.85,127.01h12v38h-12v-38Zm-1.42-10.66c-.02-1.48,.39-2.94,1.2-4.18,.81-1.24,1.97-2.22,3.33-2.8s2.87-.74,4.32-.47c1.46,.28,2.8,.98,3.85,2.02,1.05,1.04,1.77,2.38,2.07,3.83,.29,1.45,.15,2.96-.42,4.33-.57,1.37-1.53,2.54-2.76,3.36-1.23,.82-2.69,1.25-4.17,1.25-.97,.02-1.94-.15-2.85-.51-.9-.36-1.73-.9-2.42-1.58-.69-.69-1.24-1.5-1.61-2.4-.37-.9-.56-1.87-.54-2.84Z"/><path d="M456.87,146.02c0-12,7.81-20,20.35-20,11.36,0,18.78,6,19.73,15.47h-12.07c-.87-3.55-3.16-5.21-7.58-5.21-5.21,0-8.36,3.47-8.36,9.78s3.15,9.79,8.36,9.79c4.42,0,6.71-1.58,7.58-4.9h12.07c-.95,9.24-8.37,15.15-19.73,15.15-12.54-.04-20.35-8.09-20.35-20.08Z"/><path d="M532.45,146.02c0-5.76-3.39-9.86-9.07-9.86s-9.07,4.1-9.07,9.86,3.31,9.87,9.07,9.87,9.07-4.11,9.07-9.87Zm-30.22,0c0-11.6,8.05-20,21.15-20s21.07,8.44,21.07,20-8.05,20-21.07,20-21.15-8.4-21.15-20Z"/><circle cx="138.05" cy="140" r="82.5" fill="#f05a22"/><path d="M138.05,128.98c2.19,0,4.33,.65,6.14,1.86,1.82,1.21,3.24,2.94,4.07,4.96,.84,2.02,1.06,4.24,.63,6.39-.43,2.15-1.48,4.12-3.03,5.66-1.55,1.55-3.52,2.6-5.66,3.03-2.15,.43-4.37,.21-6.39-.63s-3.75-2.25-4.96-4.07c-1.22-1.82-1.86-3.96-1.86-6.14,0-2.93,1.17-5.75,3.24-7.82,2.07-2.07,4.89-3.24,7.82-3.24" fill="#fff"/><path d="M166.45,132.42h23.76c.21,0,.42,.07,.58,.2,.16,.13,.27,.32,.31,.53,.58,2.99,2.11,14.44-7.53,14.44h-16.97c-9.35,0-9.56-15.17-.11-15.17" fill="#fff"/><path d="M109.65,147.59h-23.76c-.21,0-.41-.07-.58-.2-.16-.13-.27-.32-.31-.52-.58-2.99-2.11-14.44,7.53-14.44h17.02c9.35,0,9.56,15.17,.11,15.17" fill="#fff"/><path d="M152.77,114.55l16.81-16.81c.15-.15,.35-.24,.56-.26,.21-.02,.42,.04,.59,.16,2.55,1.73,11.7,8.71,4.88,15.53l-12.03,12.03c-6.62,6.62-17.49-3.99-10.81-10.65" fill="#fff"/><path d="M123.33,165.45l-16.81,16.8c-.15,.15-.34,.24-.55,.26-.21,.02-.42-.03-.59-.15-2.55-1.74-11.7-8.72-4.88-15.53l12.03-12.04c6.62-6.61,17.49,3.99,10.81,10.66Z" fill="#fff"/><path d="M130.46,111.59v-23.76c0-.21,.08-.41,.21-.58,.13-.16,.32-.27,.53-.31,2.99-.57,14.44-2.11,14.44,7.54v16.97c0,9.35-15.18,9.56-15.18,.11" fill="#fff"/><path d="M145.64,168.41v23.76c0,.21-.08,.41-.21,.57-.13,.16-.32,.27-.53,.31-2.99,.58-14.44,2.11-14.44-7.53v-17.02c0-9.34,15.18-9.56,15.18-.1Z" fill="#fff"/><path d="M112.6,125.28l-16.81-16.81c-.15-.15-.24-.34-.26-.55-.02-.21,.03-.42,.15-.59,1.74-2.55,8.72-11.7,15.54-4.89l12.03,12.04c6.62,6.61-3.99,17.49-10.65,10.8" fill="#fff"/><path d="M163.5,154.72l16.81,16.8c.15,.15,.24,.34,.26,.55,.02,.21-.03,.42-.15,.59-1.74,2.56-8.72,11.7-15.54,4.89l-12.03-12.04c-6.62-6.61,3.99-17.49,10.65-10.8" fill="#fff"/></svg>