<?xml version="1.0" encoding="utf-8"?>
<!DOCTYPE svg PUBLIC "-//W3C//DTD SVG 1.1//EN" "http://www.w3.org/Graphics/SVG/1.1/DTD/svg11.dtd">
<svg version="1.1" xmlns="http://www.w3.org/2000/svg" xmlns:xlink="http://www.w3.org/1999/xlink" width="150px" height="75px" viewBox="0 0 600 300" xml:space="preserve">
<style type="text/css">
<![CDATA[
	.st0{fill-rule:evenodd;clip-rule:evenodd;}
	.st1{fill:#FFFFFF;}
	.st2{fill:#004B8D;}
	.st3{fill:#026CB6;}
	.st4{fill-rule:evenodd;clip-rule:evenodd;fill:#FFFFFF;}
	.st5{fill-rule:evenodd;clip-rule:evenodd;fill:#026CB6;}
]]>
</style>
<path style="fill:#004B8D;" d="M503.04,97.792c-3.298-4.072-7.567-5.379-17.558-5.379c0,0-13.317,0.001-35.308,0.002
	c-1.4-1.767-2.799-3.407-4.162-4.912c-11.325-12.466-26.643-22.807-42.239-28.559c-5.161,4.268-11.688,6.514-18.996,6.514
	c-9.531,0-18.105-2.538-26.214-7.756c-39.354-25.308-61.301-30.393-83.952-30.393c-22.649,0-44.59,5.084-83.935,30.393
	c-8.109,5.219-16.692,7.756-26.237,7.756c-7.293,0-13.811-2.246-18.965-6.514c-15.604,5.749-30.924,16.09-42.252,28.56
	c-1.37,1.509-2.774,3.158-4.18,4.933c-26.72,0.001-45.631,0.002-51.782,0.002c-21.357,0-21.949,21.388-8.454,26.875
	c6.14,2.496,9.887,4.108,9.887,4.108L7.668,198.7h90.253c12.227,18.712,30.624,34.858,53.966,46.666
	c5.217-1.151,15.138-2.827,28.67-2.827c20.611,0,40.669,4.784,59.62,14.217c16.859,8.393,28.248,18.181,34.432,24.36
	c18.979-19.04,52.957-38.577,94.071-38.577c13.508,0,23.439,1.676,28.669,2.828c23.342-11.807,41.741-27.953,53.968-46.664h35.367
	c3.123-14.443,17.465-80.694,17.862-82.339C506.88,106.75,506.499,102.062,503.04,97.792z"/>
<path style="fill:#026CB6;" d="M364.089,73.42c10.098,6.281,20.796,9.335,32.696,9.335c7.316,0,14.162-1.635,20.156-4.77
	c-3.844-2.392-7.82-4.519-11.852-6.311c-6.016,3.345-12.922,5.086-20.313,5.086c-7.854,0-15.176-1.401-22.148-4.238
	C363.118,72.823,363.596,73.112,364.089,73.42z"/>
<path style="fill:#026CB6;" d="M118.245,198.7h-6.442c10.341,13.587,24.476,25.501,41.777,34.802c1.163-0.21,2.416-0.418,3.75-0.619
	C141.021,223.523,127.798,211.849,118.245,198.7z"/>
<path style="fill-rule:evenodd;clip-rule:evenodd;fill:#026CB6;" d="M396.032,238.005c-67.577,5.376-68.415,14.077-104.974-45.566h-15.167
	c13.492,22.143,26.513,43.501,37.348,61.253c16.39,26.866,89.819,21.475,103.287,20.718
	C432.301,273.526,436.979,264.31,396.032,238.005z"/>
<path style="fill:#FFFFFF;" d="M493.78,218.109c-1.063-11.615-16.448-19.418-38.281-19.418c-0.23,0-0.466,0.008-0.696,0.012
	c0.001-0.002,0.003-0.002,0.004-0.002H299.203l118.87,8.105c-1.464,0.718-2.871,1.471-4.201,2.269H312.918l91.851,7.383
	c-0.855,0.99-1.611,1.997-2.238,3.021h-70.96l67.75,5.925l-8.551,15.951l0.078-0.132c-1.794,3.38-2.438,6.809-1.841,10.133
	c2.06,11.478,18.06,17.926,39.811,16.045c3.545-0.306,7.17-0.841,10.774-1.584c11.938-2.466,22.806-7.058,30.599-12.924
	c3.237-2.438,5.82-5.008,7.706-7.632l12.629-16.414C493.046,225.357,494.119,221.795,493.78,218.109z"/>
<g>
	<path style="fill-rule:evenodd;clip-rule:evenodd;fill:#026CB6;" d="M208.207,60.156c-0.859-1.298-1.723-2.603-2.597-3.919h-12.628c-0.004,0.002-0.008,0.005-0.013,0.008
		c0.746,1.226,1.571,2.581,2.462,4.047c0.464,0.763,0.948,1.558,1.45,2.382c0.182,0.299,0.366,0.602,0.554,0.91
		c2.018,3.316,4.313,7.088,6.848,11.253l0,0c0.407,0.668,0.827,1.359,1.246,2.048c0.529,0.868,1.066,1.752,1.613,2.651
		c0.287,0.472,0.57,0.938,0.862,1.417c3.683,6.051,7.756,12.744,12.124,19.921h14.538c-6.344-9.943-13.209-20.566-20.657-31.913
		c32.844-19.418,51.928-23.491,71.354-23.491c14.097,0,30.248,3.135,47.508,10.035c-25.222-13.766-41.612-16.892-58.26-16.892
		C256.237,38.613,238.167,42.433,208.207,60.156z"/>
	<path style="fill-rule:evenodd;clip-rule:evenodd;fill:#026CB6;" d="M195.867,67.783c-9.719,6.034-20.011,8.978-31.427,8.978c-7.379,0-14.277-1.741-20.288-5.086
		c-10.973,4.874-21.563,12.195-30.022,20.761c5.205-0.001,10.631-0.001,16.245-0.001c6.703-5.505,14.106-9.959,22.496-13.56
		c6.081,3.269,13.056,4.971,20.52,4.971c9.712,0,18.979-2.761,27.548-7.185C199.119,73.478,197.424,70.509,195.867,67.783z"/>
</g>
<g>
	<path d="M165.488,50.193c6.615,0,11.279-1.694,16.928-5.328c40.688-26.173,64.687-32.312,88.971-32.785
		c-7.511-1.494-14.594-2.019-21.749-2.019c-23.899,0-46.983,5.782-88.155,34.506c-1.577,1.103-3.173,2.085-4.791,2.961
		C159.049,49.317,161.939,50.193,165.488,50.193z"/>
	<path d="M180.558,257.805c-4.418,0-8.386,0.203-11.859,0.501c38.548,5.127,67.28,27.709,80.939,43.485
		c3.208-3.702,7.248-7.779,12.046-11.917C250.891,279.831,222.438,257.805,180.558,257.805z"/>
</g>
<g>
	<path d="M80.353,92.438c3.736-5.929,7.765-11.005,11.565-15.193c9.487-10.444,21.441-19.57,34.181-26.297
		c-3.357-1.297-6.377-3.285-8.983-5.949c-17.156,6.479-33.921,18.535-46.405,33.446c-3.262,3.899-6.708,8.577-9.938,13.994
		C66.12,92.439,72.71,92.438,80.353,92.438z"/>
	<path d="M80.094,198.7H60.447c12.794,25.106,34.167,46.694,62.256,61.88c3.241-0.828,10.054-2.299,19.618-2.978
		C114.442,242.919,93.114,222.434,80.094,198.7z"/>
</g>
<g>
	<path style="fill-rule:evenodd;clip-rule:evenodd;" d="M450.259,83.65c-12.331-13.571-29.16-24.754-46.168-30.681l-1.643-0.573l-1.265,1.191
		c-4.326,4.073-9.846,6.138-16.406,6.138c-8.397,0-15.955-2.238-23.111-6.844c-40.536-26.067-63.363-31.304-87.054-31.304
		c-23.688,0-46.51,5.237-87.037,31.304c-7.158,4.605-14.725,6.844-23.136,6.844c-6.543,0-12.051-2.064-16.373-6.136l-1.265-1.192
		l-1.642,0.571c-17.019,5.925-33.85,17.108-46.182,30.683c-2.329,2.566-4.751,5.5-7.124,8.786c2.326,0,4.726,0,7.188,0
		c1.406-1.775,2.811-3.423,4.18-4.933c11.328-12.469,26.647-22.811,42.252-28.56c5.154,4.268,11.671,6.514,18.965,6.514
		c9.382,0,17.832-2.457,25.818-7.496c5.267,9.222,13.96,24.439,24.505,42.911h5.367c-11.892-19.539-21.608-35.506-27.16-44.629
		c37.906-24.034,59.44-28.934,81.643-28.934c22.65,0,44.597,5.084,83.952,30.393c8.108,5.218,16.683,7.756,26.214,7.756
		c7.308,0,13.835-2.246,18.996-6.514c15.597,5.751,30.914,16.093,42.239,28.559c1.363,1.504,2.762,3.145,4.162,4.912
		c2.514,0,4.908,0,7.188,0C454.997,89.139,452.581,86.211,450.259,83.65z"/>
	<path style="fill-rule:evenodd;clip-rule:evenodd;" d="M416.526,274.411c-13.468,0.757-86.897,6.147-103.287-20.718c-10.835-17.752-23.856-39.111-37.348-61.253
		h-8.914c13.391,23.514,26.332,46.275,36.95,65.019c0.279,0.492,0.578,0.977,0.887,1.458l0,0
		c-12.209,6.575-22.457,14.428-30.204,22.2c-6.185-6.18-17.573-15.968-34.432-24.36c-18.951-9.433-39.009-14.217-59.62-14.217
		c-13.533,0-23.454,1.676-28.67,2.827c-23.342-11.808-41.739-27.954-53.966-46.666h-6.792
		c12.882,21.132,33.098,39.293,59.111,52.256l0.926,0.459l1.006-0.235c3.731-0.875,13.967-2.909,28.385-2.909
		c52.734,0,85.858,32.424,91.965,38.925l2.087,2.224l2.091-2.224c3.258-3.467,14.208-14.306,31.713-23.669
		c6.714,7.184,17.703,12.783,34.219,16.031c24.607,4.834,52.359,4.105,62.809,3.826l1.717-0.044c9.737,0,18.63-8.598,20.05-12.478
		c0.059-0.161,0.095-0.317,0.131-0.474C425.842,272.882,421.809,274.115,416.526,274.411z"/>
</g>
<path d="M449.052,247.753c-3.656,0.432-7.313,0.651-10.871,0.651c-20.677,0-35.56-7-37.982-17.605l-6.423,11.978l0.006,0.004
	c-1.456,2.745-1.963,5.431-1.505,7.988c1.487,8.281,12.965,13.633,29.244,13.633c0.001,0,0.001,0,0.001,0
	c2.263,0,4.622-0.104,7.01-0.309c3.41-0.296,6.903-0.81,10.389-1.53c11.467-2.369,21.863-6.744,29.272-12.323
	c2.945-2.219,5.648-5.125,7.007-6.918l0.03-0.042l3.604-4.683C470.771,243.194,460.294,246.428,449.052,247.753z"/>
<path d="M403.396,228.686c-1.058-11.548,17.576-23.208,41.623-26.045c24.046-2.838,44.396,4.222,45.454,15.771
	c1.058,11.545-17.578,23.207-41.623,26.044C424.803,247.293,404.453,240.23,403.396,228.686z"/>
<g>
	<path d="M163.225,151.241c-1.943,3.618-4.595,8.265-7.023,11.962c1.089,0,1.966,0,2.369,0c3.089,0,4.608-0.611,6.526-2.707
		c2.953-3.223,7.605-11.218,10.586-16.769c1.78-3.311,6.799-12.65,8.351-16.462c1.556-3.831,0.271-4.696-2.228-4.696
		c-3.064,0-8.02,0-9.997,0c-4.153,0-5.55,1.138-7.873,3.857c-0.695,0.813-1.586,2.111-2.565,3.658c2.369,0,5.695,0,7.979,0
		c2.495,0,3.781,0.864,2.224,4.696C170.026,138.591,165.006,147.93,163.225,151.241z"/>
	<g>
		<path d="M252.032,140.816c-0.275,1.111-0.538,1.891-1.1,2.882c0.055,0.009,0.341,0.009,0.415-0.009
			c0.445-0.834,1.094-1.752,1.836-2.651c6.638-8.047,16.817-20.4,22.225-26.97c-2.589-0.002-4.452-0.002-4.997-0.002
			c-3.069,0-4.599,1.188-6.116,3.078c-0.352,0.435-4.195,5.105-9.108,11.071C254.087,132.601,252.966,137.082,252.032,140.816z"/>
		<path d="M189.268,179.218l35.902-65.153c-4.667,0-8.317,0-8.317,0l-40.043,72.667h21.544c0,0,1.708-2.998,4.273-7.507
			L189.268,179.218z"/>
		<path d="M254.093,179.218c0,0,25.907-46.638,26.769-48.357c0.297-0.594,1.215-2.151,1.629-2.745h-0.515
			c-0.597,0.816-1.457,1.862-2.228,2.781c-1.196,1.423-11.669,14.04-21.46,25.819c-7.583,13.692-16.651,30.016-16.651,30.016h22.448
			l4.105-7.515H254.093z"/>
		<path d="M227.161,179.218c-1.631,0-2.3-1.038-1.905-2.768c0.241-1.044,7.193-29.588,11.069-45.497
			c0.234-0.956,0.573-2.227,0.832-2.864c-0.084,0-0.393,0.009-0.393,0.009s-0.643,1.427-1.434,2.828
			c-0.352,0.621-5.768,10.148-11.698,20.58c-3.644,14.953-7.711,31.666-7.894,32.46c-0.395,1.73,0.273,2.767,1.904,2.767
			c0.591,0,9.55,0,10.587,0c1.224,0,2.298-0.565,3.079-1.482c0.172-0.206,1.956-2.525,4.642-6.032
			C233.002,179.218,227.614,179.218,227.161,179.218z"/>
	</g>
	<g>
		<path d="M468.551,130.942c0.299-1.243,0.811-2.974,1.38-4.456c-0.195,0-0.612-0.002-0.724-0.002
			c-0.76,1.188-1.745,2.529-3.215,4.371c-2.176,2.721-4.64,5.801-7.229,9.039c-0.402,1.687-1.094,4.578-1.934,8.108h7.648
			C466.503,139.516,468.261,132.142,468.551,130.942z"/>
		<path d="M459.324,179.218c-1.286,0-2.073-0.914-1.677-2.571c0.077-0.334,1.445-6.068,3.187-13.37h-20.766
			c-2.241,2.801-4.287,5.358-6.013,7.514h17.337c-1.744,7.303-3.11,13.036-3.19,13.369c-0.396,1.658,0.395,2.572,1.682,2.572
			c0.891,0,15.866,0,15.866,0s0.632-2.904,1.63-7.515C463.381,179.218,459.714,179.218,459.324,179.218z"/>
	</g>
	<g>
		<path d="M87.443,133.543h4.179c5.112-4.287,16.025-13.44,23.202-19.478c-3.93,0-6.957,0-7.423,0c-2.594,0-3.263,0.297-4.956,1.78
			c-0.61,0.533-4.702,3.979-9.795,8.262L87.443,133.543z"/>
		<path d="M90.078,179.119c-1.631,0-2.468-0.371-2.744-2.422c-0.173-1.292-2.556-19.077-3.598-26.842h-5.294l-4.146,7.514h2.624
			c1.041,7.766,3.425,25.551,3.6,26.841c0.274,2.055,1.11,2.523,2.743,2.523c1.631,0,19.987,0,19.987,0l-1.169-7.61
			C96.905,179.12,90.975,179.119,90.078,179.119z"/>
	</g>
	<path d="M459.246,114.066c-2.665,0-4.687-0.001-5.209-0.001c-2.968,0-5.142,0.865-7.219,3.337
		c-0.078,0.093-0.924,1.099-2.347,2.789l-1.3,2.377l-0.7,0.001c-13.525,16.079-53.979,64.164-53.979,64.164s22.854,0,24.239,0
		s2.375-0.373,3.36-1.558c0.126-0.151,1.938-2.415,4.774-5.957c-6.111,0-16.429,0-16.429,0S446.636,129.056,459.246,114.066z"/>
	<g>
		<polygon points="340.539,157.378 344.672,149.864 326.782,149.863 322.629,157.377 		"/>
		<polygon points="288.463,179.249 324.398,114.016 316.084,114.016 276.009,186.733 338.271,186.763 342.435,179.249 		"/>
		<polygon points="341.867,122.568 337.715,130.083 362.871,130.083 367.002,122.568 		"/>
	</g>
	<polygon points="423.422,122.588 419.286,130.103 430.712,130.103 434.818,122.588 	"/>
	<polygon points="401.291,122.588 380.449,122.589 385.117,114.067 379.491,114.067 374.817,122.569 372.117,122.569 
		367.99,130.104 388.832,130.103 357.646,186.733 379.793,186.733 383.93,179.218 370.104,179.218 	"/>
	<path d="M156.416,179.202c-4.549,0-20.663,0-23.135,0c-6.155,0-10.235-0.676-12.184-4.884c-2.749-5.927,0.771-13.769,10.652-31.827
		c8.239-15.06,12.626-22.282,18.386-27.387c-3.23,0.778-6.645,2.063-9.878,4.202c-8.255,5.464-11.511,12.88-20.967,30.701
		c-9.992,18.832-8.796,26.84-5.691,31.734c2.449,3.854,7.341,4.976,13.497,4.976c2.471,0,12.316,0,16.865,0
		c9.417,0,15.45-2.127,21.355-6.708c0.779-0.603,1.734-1.509,2.539-2.276C164.568,178.719,160.874,179.202,156.416,179.202z"/>
	<polygon points="40.055,179.221 76.072,113.968 49.267,113.967 63.801,120.639 27.595,186.733 55.413,186.733 59.57,179.221 	"/>
</g>
<g>
	<path style="fill:#FFFFFF;" d="M263.05,200.591c-0.468-1.067-1.166-1.623-3.958-1.623c-1.879,0-5.128,0-7.093,0
		c-2.284,0-4.114,0.307-6.131,1.607c-2.59,1.669-3.942,3.701-7.137,9.383c-3.101,5.518-4.203,7.915-3.343,9.727
		c0.614,1.288,1.894,1.495,3.828,1.495c0.773,0,5.832,0,7.26,0c2.957,0,4.851-0.649,6.704-2.05c2.351-1.776,4.064-4.604,6.354-8.734
		C262.35,205.32,263.873,202.464,263.05,200.591z M255.235,205.304c-0.485,1.167-2.152,4.021-2.712,5.032
		c-0.936,1.698-2.329,4.141-3.252,5.125c-0.604,0.64-1.079,0.827-2.049,0.827c-0.435,0-2.743,0-3.528,0
		c-0.744,0-0.904-0.425-0.65-1.144c0.386-1.099,1.908-3.728,2.606-4.951c0.794-1.396,2.338-4.241,3.136-5.146
		c0.728-0.829,1.166-1.18,2.469-1.18c0.622,0,2.32,0,3.283,0C255.319,203.868,255.723,204.134,255.235,205.304z"/>
	<path style="fill:#FFFFFF;" d="M231.152,199.021c0,0-6.308,11.757-6.688,12.419c-0.484,0.851-0.8,1.5-0.982,2.12
		c-0.084,0-0.136,0.007-0.228-0.004c0.069-0.343,0.2-1.318,0.2-2.195c-0.001-0.905-0.1-12.344-0.1-12.344l-8.779,0.003
		l-11.864,22.211l6.481-0.001c0,0,6.3-11.757,7.089-13.103c0.432-0.731,0.983-1.843,1.209-2.583h0.243
		c-0.108,0.56-0.226,1.587-0.222,2.604c0.003,0.569,0.51,13.082,0.51,13.082h7.748l11.865-22.207L231.152,199.021z"/>
	<path style="fill:#FFFFFF;" d="M173.17,199.019c-2.943,0-20.973,0.001-20.973,0.001l4.875,1.996l-11.158,20.216
		c0,0,14.521,0.005,16.198,0.005c2.425,0,4.628-0.464,6.119-2.253c1.406-1.685,2.281-3.317,3.219-5.304
		c0.993-2.103,0.193-3.547-2.118-3.625c0.014-0.024,0.08-0.17,0.099-0.229c2.464,0.1,4.03-0.85,5.214-2.899
		c0.476-0.823,1.002-1.7,1.585-3.037C177.251,201.555,177.19,199.019,173.17,199.019z M163.667,214.488
		c-0.889,1.556-1.426,1.859-2.826,1.859c-0.827,0-3.588-0.005-5.447-0.01c0.7-1.27,1.477-2.674,2.253-4.085c1.708,0,4.856,0,5.235,0
		C164.378,212.251,164.536,212.97,163.667,214.488z M168.298,205.839c-0.697,1.431-1.231,1.709-2.183,1.709
		c-0.352,0-3.838-0.003-5.869-0.008c0.858-1.552,1.576-2.854,2.003-3.625c1.557,0,5.021,0,5.299,0
		C168.48,203.914,169.048,204.305,168.298,205.839z"/>
	<path style="fill:#FFFFFF;" d="M203.469,206.632c2.515-4.488,2.431-7.615-1.86-7.615c-1.043,0-15.365,0-15.365,0l-11.879,22.21l6.708,0.044
		l4.524-8.158c0.881,0,1.968,0,3.077,0c0.351,2.625,0.937,6.999,0.985,7.354c0.085,0.625,0.341,0.739,0.837,0.739
		c0.501,0,6.11-0.007,6.11-0.007l-1.465-8.105C199.136,212.917,200.755,211.469,203.469,206.632z M196.275,206.331
		c-0.725,1.343-1.451,2.293-3.233,2.293c-0.592,0-3.1,0-4.955,0l2.612-4.71c0,0,3.688,0,4.775,0S197.275,204.479,196.275,206.331z"
		/>
</g>
<g>
	<path style="fill:#FFFFFF;" d="M335.242,66.688c-0.563-1.312-1.397-1.99-4.744-1.99c-2.253,0-6.15,0.007-8.506,0
		c-2.594-0.009-5.117,0.39-7.552,2.119c-3.179,2.258-4.522,4.3-8.355,11.407c-3.679,6.819-5.046,9.75-4.011,11.98
		c0.736,1.584,2.272,1.838,4.588,1.838c0.927,0,6.996,0,8.705,0c3.548,0,5.819-0.801,8.042-2.524
		c2.267-1.757,4.036-4.355,6.073-7.952c-0.436,0.016-8.234,0.003-8.504,0.002c-0.816,1.431-1.634,2.762-2.26,3.432
		c-0.727,0.784-1.293,1.02-2.455,1.02c-0.521,0-3.289,0-4.232,0c-0.891,0-1.08-0.524-0.779-1.411
		c0.461-1.353,2.646-5.074,3.169-6.069c0.865-1.646,2.788-5.204,3.722-6.336c0.92-1.116,1.394-1.479,2.957-1.479
		c0.746,0,2.781,0,3.936,0c0.94,0,1.424,0.326,0.838,1.768c-0.268,0.658-1.516,2.978-1.516,2.978s8.039,0.028,8.432-0.011
		C335,71.208,336.038,68.553,335.242,66.688z"/>
	<polygon style="fill:#FFFFFF;" points="295.978,64.802 290.194,75.267 279.419,75.267 285.194,64.801 269.249,64.802 275.251,67.258 
		261.511,92.155 270.097,92.161 276.176,81.144 286.944,81.144 280.861,92.155 289.449,92.161 304.543,64.801 	"/>
</g>
<g>
	<path style="fill-rule:evenodd;clip-rule:evenodd;fill:#FFFFFF;" d="M227.174,100.874C215.014,81.219,204.99,65.1,199.462,56.236h-3.323c5.728,9.429,15.402,25.351,27.131,44.637
		H227.174z"/>
	<path style="fill-rule:evenodd;clip-rule:evenodd;fill:#FFFFFF;" d="M375.687,269.336c-54.335-4.337-55.431-16.607-63.782-30.007c-4.281-6.871-8.892-14.416-14.6-23.896
		c-4.431-7.359-9.104-15.08-13.913-22.994h-4.36c13.139,21.54,25.76,42.197,36.226,59.265c9.854,16.069,40.734,20.188,65.826,20.934
		c15.635,0.465,33.546-0.585,33.546-0.585S390.329,270.504,375.687,269.336z"/>
</g>
<polygon style="fill:#FFFFFF;" points="466.273,238.469 444.798,229.599 414.137,238.336 431.265,223.069 416.338,214.179 440.854,214.179 
	454.49,203.831 458.015,214.179 485.069,214.178 461.445,224.233 "/>
<path style="fill:#FFFFFF;" d="M91.854,92.438c2.373-3.286,4.795-6.22,7.124-8.786c12.332-13.575,29.163-24.758,46.182-30.683l1.642-0.571
	l1.265,1.192c4.322,4.072,9.83,6.136,16.373,6.136c8.411,0,15.978-2.239,23.136-6.844c40.526-26.067,63.348-31.304,87.037-31.304
	c23.691,0,46.518,5.237,87.054,31.304c7.156,4.606,14.714,6.844,23.111,6.844c6.561,0,12.08-2.064,16.406-6.138l1.265-1.191
	l1.643,0.573c17.008,5.927,33.837,17.11,46.168,30.681c2.32,2.56,4.733,5.491,7.097,8.765c4.274,0,8.125,0,11.508-0.001
	c-3.731-5.918-7.755-10.988-11.55-15.175c-13.366-14.71-31.623-26.837-50.086-33.271l-7.102-2.476l-5.476,5.156
	c-2.536,2.386-5.765,3.545-9.873,3.545c-6.602,0-12.305-1.692-17.955-5.33c-42.498-27.33-66.791-32.818-92.21-32.818
	c-25.418,0-49.708,5.488-92.196,32.82c-5.649,3.634-10.313,5.328-16.928,5.328c-4.088,0-7.305-1.158-9.835-3.542l-5.476-5.158
	l-8.153,2.473c-18.473,6.432-36.735,18.561-50.106,33.28c-3.8,4.188-7.829,9.264-11.565,15.193
	C83.959,92.438,87.8,92.438,91.854,92.438z"/>
<g>
	<path style="fill:#FFFFFF;" d="M308.415,263.528c-17.506,9.363-28.456,20.202-31.714,23.669l-2.091,2.224l-2.087-2.224
		c-6.107-6.501-39.231-38.925-91.965-38.925c-14.418,0-24.654,2.034-28.385,2.909l-1.006,0.235l-0.926-0.459
		c-26.014-12.963-46.229-31.124-59.111-52.256H80.096c13.584,24.767,36.214,45.997,65.895,60.788l4.004,1.995l4.354-1.021
		c3.41-0.799,12.787-2.656,26.209-2.656c48.809,0,79.382,29.919,85.015,35.918l9.034,9.619l9.039-9.615
		c3.22-3.425,14.582-14.651,32.821-23.653C313.289,268.083,310.622,265.89,308.415,263.528z"/>
</g>
<g>
	<path style="fill:#FFFFFF;" d="M209.212,111.841c-1.49-3.487-3.707-5.307-12.604-5.307c-5.984,0-16.34,0.002-22.595,0.002
		c-7.278,0-13.11,1.004-19.538,5.255c-8.257,5.461-12.557,12.112-22.726,30.699c-9.882,18.059-13.401,25.9-10.652,31.827
		c1.949,4.208,6.029,4.884,12.184,4.884c2.472,0,18.586,0,23.135,0c9.417,0,15.452-2.127,21.356-6.708
		c7.488-5.805,12.945-15.061,20.244-28.569C206.989,127.313,211.831,117.97,209.212,111.841z M184.033,127.264
		c-1.551,3.812-6.571,13.151-8.351,16.462c-2.981,5.551-7.634,13.546-10.586,16.769c-1.918,2.096-3.437,2.707-6.526,2.707
		c-1.384,0-8.228,0-10.726,0c-2.371,0-2.878-1.389-2.075-3.744c1.225-3.597,5.79-12.196,8.016-16.201
		c2.531-4.559,7.62-13.873,10.151-16.832c2.322-2.72,3.72-3.857,7.873-3.857c1.977,0,6.933,0,9.997,0
		C184.304,122.568,185.589,123.433,184.033,127.264z"/>
	<path style="fill:#FFFFFF;" d="M285.166,106.552c-3.062,0-4.596,1.186-6.116,3.077c-0.726,0.908-16.686,20.278-25.868,31.409
		c-0.742,0.899-1.391,1.817-1.836,2.651c-0.074,0.018-0.36,0.018-0.415,0.009c0.563-0.992,0.825-1.771,1.1-2.882
		c2.885-11.53,7.563-30.197,7.793-31.15c0.52-2.151-0.519-3.114-2.486-3.114c-1.481,0-28.028,0-28.028,0l-40.043,72.667l18.602,0
		c0,0,26.668-46.89,27.46-48.292c0.791-1.4,1.434-2.828,1.434-2.828s0.308-0.009,0.393-0.009c-0.259,0.637-0.598,1.908-0.832,2.864
		c-3.876,15.909-10.828,44.453-11.069,45.497c-0.396,1.73,0.274,2.768,1.905,2.768c0.591,0,9.549,0,10.585,0
		c1.224,0,2.299-0.568,3.076-1.485c0.775-0.906,36.653-44.129,38.926-46.836c0.771-0.919,1.631-1.965,2.228-2.781h0.515
		c-0.414,0.594-1.332,2.15-1.629,2.745c-0.862,1.72-26.769,48.357-26.769,48.357h22.45l39.729-72.666
		C316.272,106.553,287.692,106.552,285.166,106.552z"/>
	<polygon style="fill:#FFFFFF;" points="352.992,149.864 361.479,134.441 335.307,134.442 341.867,122.568 374.817,122.569 383.65,106.501 
		328.537,106.502 288.463,179.249 350.739,179.249 359.584,163.233 319.393,163.233 326.782,149.863 	"/>
	<polygon style="fill:#FFFFFF;" points="443.172,122.588 451.934,106.552 389.233,106.552 380.449,122.589 401.291,122.588 370.104,179.218 
		392.253,179.218 423.422,122.588 	"/>
	<path style="fill:#FFFFFF;" d="M490.565,106.553c-1.188,0-18.71-0.001-20.587-0.001c-2.965,0-5.143,0.866-7.217,3.336
		c-0.677,0.806-58.323,69.33-58.323,69.33s19.369,0,20.75,0c1.385,0,2.375-0.371,3.364-1.558c0.208-0.25,5.045-6.293,11.516-14.383
		h20.766c-1.741,7.301-3.109,13.035-3.187,13.37c-0.396,1.657,0.391,2.571,1.677,2.571c0.892,0,18.886,0,18.886,0
		s14.635-67.549,15.028-69.255C493.656,108.133,493.113,106.553,490.565,106.553z M468.551,130.942
		c-0.29,1.199-2.048,8.573-4.072,17.06h-12.197c4.904-6.131,9.766-12.216,13.711-17.147c1.47-1.841,2.455-3.182,3.215-4.371
		c0.111,0,0.528,0.002,0.724,0.002C469.361,127.969,468.85,129.7,468.551,130.942z"/>
	<path style="fill:#FFFFFF;" d="M148.707,106.552c0,0-20.652,0-22.135,0c-2.594,0-3.262,0.296-4.958,1.779
		c-1.436,1.259-22.293,18.755-29.993,25.212h-4.179l14.892-26.995l-41.719,0.003l15.949,6.524l-36.509,66.145l22.176,0l16.21-29.366
		h5.294c1.042,7.765,3.425,25.55,3.598,26.842c0.276,2.051,1.112,2.422,2.744,2.422c1.632,0,19.988,0,19.988,0l-5.337-34.516
		L148.707,106.552z"/>
</g>
</svg>
