<?xml version="1.0" encoding="iso-8859-1"?>
<!-- Generator: Adobe Illustrator 19.0.0, SVG Export Plug-In . SVG Version: 6.00 Build 0)  -->
<svg version="1.1" id="Capa_1" xmlns="http://www.w3.org/2000/svg" xmlns:xlink="http://www.w3.org/1999/xlink" x="0px" y="0px"
	 viewBox="0 0 480.4 480.4" style="enable-background:new 0 0 480.4 480.4;" xml:space="preserve">
<g>
	<circle style="fill:#65CECC;" cx="96.2" cy="304.4" r="32"/>
	<circle style="fill:#65CECC;" cx="192.2" cy="304.4" r="32"/>
	<circle style="fill:#65CECC;" cx="288.2" cy="304.4" r="32"/>
	<circle style="fill:#65CECC;" cx="384.2" cy="304.4" r="32"/>
</g>
<g>
	<path style="fill:#E9CD4B;" d="M100.2,390.8c-7.2-18.4-24.8-30.4-44-30.4c-27.2,0.8-48.8,24-48,51.2v60.8h88v-60.8
		C96.2,404.4,97.8,397.2,100.2,390.8z"/>
	<path style="fill:#E9CD4B;" d="M192.2,472.4h-96v-60.8c-0.8-27.2,20.8-50.4,48-51.2l0,0c27.2,0.8,48.8,24,48,51.2V472.4z"/>
	<path style="fill:#E9CD4B;" d="M288.2,472.4h-96v-60.8c-0.8-27.2,20.8-50.4,48-51.2l0,0c27.2,0.8,48.8,24,48,51.2V472.4z"/>
	<path style="fill:#E9CD4B;" d="M424.2,360.4c-19.2,0-36.8,12-44,30.4c2.4,6.4,4,13.6,4,20v61.6h88v-60.8
		C473,384.4,451.4,361.2,424.2,360.4z"/>
	<path style="fill:#E9CD4B;" d="M384.2,472.4h-96v-60.8c-0.8-27.2,20.8-50.4,48-51.2l0,0c27.2,0.8,48.8,24,48,51.2V472.4z"/>
	<circle style="fill:#E9CD4B;" cx="424.2" cy="328.4" r="32"/>
	<circle style="fill:#E9CD4B;" cx="336.2" cy="328.4" r="32"/>
	<circle style="fill:#E9CD4B;" cx="240.2" cy="328.4" r="32"/>
	<circle style="fill:#E9CD4B;" cx="144.2" cy="328.4" r="32"/>
	<circle style="fill:#E9CD4B;" cx="56.2" cy="328.4" r="32"/>
</g>
<g>
	<path style="fill:#DE2F55;" d="M329,24.4c-21.6-20.8-55.2-20.8-76.8,0l-12,11.2l-12-11.2c-21.6-20.8-55.2-20.8-76.8,0
		c-20,20-20.8,52-0.8,72.8l0.8,0.8l88.8,86.4L329,97.2C349,78,349,45.2,329,24.4L329,24.4z"/>
	<path style="fill:#DE2F55;" d="M110.6,137.2c-12.8-12-33.6-12-46.4,0c-12.8-12-33.6-12-46.4,0c-12,11.2-12.8,29.6-1.6,41.6
		c0.8,0.8,1.6,1.6,1.6,1.6l46.4,44l46.4-43.2c12-11.2,12.8-29.6,1.6-41.6C112.2,138.8,111.4,138,110.6,137.2z"/>
	<path style="fill:#DE2F55;" d="M462.6,137.2c-12.8-12-33.6-12-46.4,0c-12.8-12-33.6-12-46.4,0c-12,11.2-12.8,29.6-1.6,41.6
		c0.8,0.8,1.6,1.6,1.6,1.6l46.4,44l46.4-43.2c12-11.2,12.8-29.6,1.6-41.6C464.2,138.8,463.4,138,462.6,137.2z"/>
</g>
<path d="M449.8,358.8c16.8-13.6,19.2-39.2,5.6-56c-8-9.6-19.2-14.4-31.2-14.4c-0.8,0-2.4,0-3.2,0c-6.4-14.4-20.8-24-36.8-24
	c-16.8,0-31.2,10.4-36.8,25.6c-7.2-2.4-14.4-2.4-21.6,0c-8-20.8-30.4-31.2-51.2-23.2c-10.4,4-19.2,12-23.2,23.2
	c-7.2-2.4-14.4-2.4-21.6,0c-8-20.8-30.4-31.2-51.2-23.2c-10.4,4-19.2,12.8-23.2,23.2c-7.2-2.4-14.4-2.4-21.6,0
	c-6.4-15.2-20.8-25.6-37.6-25.6c-16,0-30.4,9.6-36.8,24c-0.8,0-2.4,0-3.2,0c-21.6,0-40,17.6-40,40c0,12,5.6,23.2,14.4,31.2
	c-19.2,9.6-30.4,29.6-30.4,52v60.8c0,4.8,3.2,8,8,8l0,0h464c4.8,0,8-3.2,8-8l0,0v-60.8C480.2,389.2,469,369.2,449.8,358.8z
	 M424.2,304.4c13.6,0,24,10.4,24,24s-10.4,24-24,24s-24-10.4-24-24S410.6,304.4,424.2,304.4z M384.2,280.4c8.8,0,16.8,4.8,20.8,12.8
	c-12.8,7.2-20.8,20.8-20.8,35.2c-2.4,0-5.6-0.8-8-1.6c-0.8-11.2-5.6-22.4-15.2-29.6C364.2,287.6,373.8,280.4,384.2,280.4z
	 M336.2,304.4c13.6,0,24,10.4,24,24s-10.4,24-24,24s-24-10.4-24-24S322.6,304.4,336.2,304.4z M288.2,280.4c10.4,0,20,7.2,23.2,16.8
	c-8.8,7.2-14.4,17.6-14.4,29.6c-5.6,1.6-11.2,1.6-16,0c-0.8-11.2-5.6-22.4-15.2-29.6C268.2,287.6,277.8,280.4,288.2,280.4z
	 M240.2,304.4c4,0,8.8,0.8,12,3.2c11.2,6.4,15.2,21.6,8,32.8c-7.2,11.2-21.6,15.2-32.8,8c-11.2-6.4-15.2-21.6-8-32.8
	C224.2,309.2,231.4,304.4,240.2,304.4z M192.2,280.4c10.4,0,20,7.2,23.2,16.8c-8.8,7.2-14.4,17.6-14.4,29.6c-5.6,1.6-11.2,1.6-16,0
	c-0.8-11.2-5.6-22.4-14.4-29.6C172.2,287.6,181.8,280.4,192.2,280.4z M144.2,304.4c13.6,0,24,10.4,24,24s-10.4,24-24,24
	s-24-10.4-24-24S130.6,304.4,144.2,304.4z M96.2,280.4c10.4,0,20,7.2,23.2,16.8c-8.8,7.2-14.4,17.6-15.2,29.6
	c-2.4,0.8-5.6,1.6-8,1.6c0-14.4-8-28-20.8-35.2C79.4,285.2,87.4,280.4,96.2,280.4z M56.2,304.4c13.6,0,24,10.4,24,24s-10.4,24-24,24
	s-24-10.4-24-24S42.6,304.4,56.2,304.4z M88.2,411.6v52.8h-72v-52.8c-0.8-23.2,16.8-42.4,40-43.2c15.2,0,28.8,9.6,35.2,23.2
	C89,398,88.2,404.4,88.2,411.6z M100.2,374.8c-4.8-6.4-11.2-12-18.4-16c4.8-4,8.8-8.8,11.2-14.4c0.8,0,2.4,0,3.2,0
	c4,0,7.2-0.8,11.2-1.6c2.4,6.4,6.4,12,12,16C111.4,362.8,105,368.4,100.2,374.8z M184.2,464.4h-80v-52.8
	c-0.8-23.2,16.8-42.4,40-43.2c23.2,0.8,40.8,20,40,43.2V464.4z M169.8,358.8c4.8-4,8.8-9.6,12-16c7.2,2.4,14.4,2.4,21.6,0
	c2.4,6.4,6.4,12,12,16c-9.6,4.8-16.8,12.8-22.4,22.4C186.6,371.6,179.4,364.4,169.8,358.8z M280.2,464.4h-80v-52.8
	c-0.8-23.2,16.8-42.4,40-43.2c23.2,0.8,40.8,20,40,43.2V464.4z M265.8,358.8c4.8-4,8.8-9.6,12-16c7.2,2.4,14.4,2.4,21.6,0
	c2.4,6.4,6.4,12,12,16c-9.6,4.8-16.8,12.8-22.4,22.4C282.6,371.6,275.4,364.4,265.8,358.8z M376.2,464.4h-80v-52.8
	c-1.6-22.4,15.2-41.6,36.8-43.2s41.6,15.2,43.2,36.8c0,1.6,0,4,0,5.6V464.4z M380.2,374.8c-4.8-6.4-11.2-12-18.4-16
	c4.8-4,8.8-9.6,12-16c3.2,0.8,7.2,1.6,11.2,1.6c0.8,0,2.4,0,3.2,0c2.4,5.6,6.4,11.2,11.2,14.4C391.4,362.8,385,368.4,380.2,374.8z
	 M464.2,464.4h-72v-52.8c0-6.4-0.8-13.6-3.2-20c6.4-13.6,20-22.4,35.2-23.2c23.2,0.8,40.8,20,40,43.2V464.4z"/>
<path d="M240.2,192.4c-2.4,0-4-0.8-5.6-2.4l-88.8-87.2c-23.2-23.2-24-60.8-0.8-84l0.8-0.8c24-24,63.2-24,88,0l6.4,6.4l6.4-6.4
	c24-24,63.2-24,88,0l0,0c23.2,23.2,24,60.8,0.8,84l-0.8,0.8L245.8,190C244.2,191.6,242.6,192.4,240.2,192.4z M189.8,16.4
	c-12,0-24,4.8-32.8,13.6c-16.8,16.8-17.6,44-0.8,61.6l0.8,0.8l83.2,80.8l83.2-81.6c16.8-16.8,17.6-44,0.8-61.6l-0.8-0.8
	c-18.4-17.6-47.2-17.6-65.6,0l-12,12c-3.2,3.2-8,3.2-11.2,0l-12-12C213.8,21.2,201.8,16.4,189.8,16.4z"/>
<path d="M64.2,232.4c-2.4,0-4-0.8-5.6-2.4l-46.4-43.2C-3,173.2-3.8,149.2,9.8,134c0.8-0.8,1.6-1.6,2.4-2.4c14.4-12.8,36-15.2,52-4
	c16-10.4,37.6-8.8,52,4c15.2,13.6,16,37.6,2.4,52.8c-0.8,0.8-1.6,1.6-2.4,2.4L69.8,230C68.2,231.6,66.6,232.4,64.2,232.4z M41,136.4
	c-6.4,0-12.8,2.4-17.6,7.2c-8.8,8-9.6,21.6-1.6,30.4c0.8,0.8,0.8,0.8,1.6,1.6L64.2,214l40.8-38.4c8.8-8,9.6-21.6,1.6-30.4
	c-0.8-0.8-0.8-0.8-1.6-1.6c-10.4-8.8-25.6-8.8-35.2,0c-3.2,3.2-8,3.2-11.2,0C53.8,138.8,47.4,136.4,41,136.4z"/>
<path d="M416.2,232.4c-2.4,0-4-0.8-5.6-2.4l-46.4-43.2c-15.2-13.6-16-37.6-2.4-52.8c0.8-0.8,1.6-1.6,2.4-2.4c14.4-12.8,36-15.2,52-4
	c16-10.4,37.6-8.8,52,4c15.2,13.6,16,37.6,2.4,52.8c-0.8,0.8-1.6,1.6-2.4,2.4L421.8,230C420.2,231.6,418.6,232.4,416.2,232.4z
	 M393,136.4c-6.4,0-12.8,2.4-17.6,7.2c-8.8,8-9.6,21.6-1.6,30.4c0.8,0.8,0.8,0.8,1.6,1.6l40.8,38.4l40.8-38.4
	c8.8-8,9.6-21.6,1.6-30.4c-0.8-0.8-0.8-0.8-1.6-1.6c-10.4-8.8-25.6-8.8-35.2,0c-3.2,3.2-8,3.2-11.2,0
	C405.8,138.8,399.4,136.4,393,136.4z"/>
<g>
</g>
<g>
</g>
<g>
</g>
<g>
</g>
<g>
</g>
<g>
</g>
<g>
</g>
<g>
</g>
<g>
</g>
<g>
</g>
<g>
</g>
<g>
</g>
<g>
</g>
<g>
</g>
<g>
</g>
</svg>
